<?xml version="1.0" encoding="UTF-8" standalone="no"?>
<!-- Created with Inkscape (http://www.inkscape.org/) -->

<svg
   xmlns:dc="http://purl.org/dc/elements/1.1/"
   xmlns:cc="http://creativecommons.org/ns#"
   xmlns:rdf="http://www.w3.org/1999/02/22-rdf-syntax-ns#"
   xmlns:svg="http://www.w3.org/2000/svg"
   xmlns="http://www.w3.org/2000/svg"
   xmlns:sodipodi="http://sodipodi.sourceforge.net/DTD/sodipodi-0.dtd"
   xmlns:inkscape="http://www.inkscape.org/namespaces/inkscape"
   width="121.64815mm"
   height="25.269175mm"
   viewBox="0 0 431.03673 89.536446"
   id="svg2"
   version="1.1"
   inkscape:version="0.91 r13725"
   sodipodi:docname="logo.svg"
   inkscape:export-filename="/home/rafa/Work/Vivado/Proyectos/webs_proyectos/IMPRESS/images/IMPRESS logo.png"
   inkscape:export-xdpi="400"
   inkscape:export-ydpi="400">
  <defs
     id="defs4" />
  <sodipodi:namedview
     id="base"
     pagecolor="#ffffff"
     bordercolor="#666666"
     borderopacity="1.0"
     inkscape:pageopacity="0.0"
     inkscape:pageshadow="2"
     inkscape:zoom="2.8"
     inkscape:cx="130.89252"
     inkscape:cy="55.307651"
     inkscape:document-units="px"
     inkscape:current-layer="layer1"
     showgrid="false"
     inkscape:window-width="1920"
     inkscape:window-height="1027"
     inkscape:window-x="0"
     inkscape:window-y="0"
     inkscape:window-maximized="1"
     fit-margin-top="0"
     fit-margin-left="0"
     fit-margin-right="0"
     fit-margin-bottom="0" />
  <metadata
     id="metadata7">
    <rdf:RDF>
      <cc:Work
         rdf:about="">
        <dc:format>image/svg+xml</dc:format>
        <dc:type
           rdf:resource="http://purl.org/dc/dcmitype/StillImage" />
        <dc:title></dc:title>
      </cc:Work>
    </rdf:RDF>
  </metadata>
  <g
     inkscape:label="Layer 1"
     inkscape:groupmode="layer"
     id="layer1"
     transform="translate(-164.73648,-468.23465)">
    <text
       xml:space="preserve"
       style="font-style:normal;font-weight:normal;font-size:15.81902313px;line-height:125%;font-family:sans-serif;letter-spacing:0px;word-spacing:0px;fill:#000000;fill-opacity:1;stroke:none;stroke-width:1px;stroke-linecap:butt;stroke-linejoin:miter;stroke-opacity:1"
       x="157.90266"
       y="556.12592"
       id="text4142-1-2"
       sodipodi:linespacing="125%"><tspan
         sodipodi:role="line"
         id="tspan4144-8-9"
         x="157.90266"
         y="556.12592"
         style="font-style:normal;font-variant:normal;font-weight:bold;font-stretch:normal;font-size:126.55218506px;font-family:'Ubuntu Mono';-inkscape-font-specification:'Ubuntu Mono Bold';fill:#3465a4;fill-opacity:1">IMP ESS</tspan></text>
    <path
       inkscape:connector-curvature="0"
       style="font-style:normal;font-weight:normal;font-size:6.25px;line-height:125%;font-family:sans-serif;letter-spacing:0px;word-spacing:0px;fill:#a765a0;fill-opacity:1;stroke:#000000;stroke-width:0.50620872;stroke-linecap:butt;stroke-linejoin:miter;stroke-miterlimit:4;stroke-dasharray:none;stroke-opacity:1"
       d="m 359.7515,538.19887 c -1.07058,-8.5e-4 -1.93868,0.86723 -1.93782,1.93781 0.1015,0.52795 0.6948,0.90851 0.70692,1.49295 l 0,1.58191 -6.9406,0 0,12.65521 15.56691,0 0,-12.65521 -6.27817,0 0,-1.49294 c 0.5005,-0.54941 0.78379,-1.44686 0.82061,-1.58192 0.25661,-1.41936 -0.86119,-1.94695 -1.93785,-1.93781 z"
       id="text4150-9-1" />
    <path
       inkscape:connector-curvature="0"
       style="font-style:normal;font-weight:normal;font-size:6.25px;line-height:125%;font-family:sans-serif;letter-spacing:0px;word-spacing:0px;fill:#fce94f;fill-opacity:1;stroke:#000000;stroke-width:0.50620872;stroke-linecap:butt;stroke-linejoin:miter;stroke-miterlimit:4;stroke-dasharray:none;stroke-opacity:1"
       d="m 359.46975,506.94641 c -0.9708,-0.0109 -1.73498,0.78304 -1.81424,1.80931 0.0652,0.69323 0.59814,0.91991 0.72174,1.44349 0.12376,0.52407 0.12143,1.31361 0.0939,2.0021 l -6.89117,0 0,31.01023 6.9406,0 0,-1.58191 c -0.0126,-0.58444 -0.60542,-0.965 -0.7069,-1.49295 -8.7e-4,-1.07058 0.86722,-1.93866 1.9378,-1.93781 1.07667,-0.0108 2.19447,0.51845 1.93784,1.93781 -0.0367,0.13508 -0.32009,1.03251 -0.82061,1.58192 l 0,1.49294 6.27819,0 0,-16.19475 3.6779,0 0,-4.07338 a 3.7737036,2.3475216 0 0 0 1.25565,0.13849 3.7737036,2.3475216 0 0 0 3.77184,-2.34812 3.7737036,2.3475216 0 0 0 -3.77184,-2.34817 3.7737036,2.3475216 0 0 0 -1.25565,0.13347 l 0,-4.42933 c -0.0928,6.3e-4 -0.16831,0.0143 -0.26198,0.0143 l -3.41592,0 0,-1.90321 -6.77746,0 c -0.0276,-0.66982 -0.0228,-1.43209 0.10379,-1.93784 0.13938,-0.55335 0.73484,-0.90069 0.81071,-1.50773 0.22249,-1.14017 -0.80526,-1.79235 -1.81422,-1.80933 z"
       id="text4173-2-9" />
    <path
       inkscape:connector-curvature="0"
       style="font-style:normal;font-weight:normal;font-size:6.25px;line-height:125%;font-family:sans-serif;letter-spacing:0px;word-spacing:0px;fill:#ef2929;fill-opacity:1;stroke:#000000;stroke-width:0.50620872;stroke-linecap:butt;stroke-linejoin:miter;stroke-miterlimit:4;stroke-dasharray:none;stroke-opacity:1"
       d="m 379.56483,534.27378 c 1.35455,2.35661 2.65885,4.7035 3.91027,7.03946 2.6154,4.64024 4.89138,9.49142 6.83184,14.55351 l 16.32327,0 c -1.01243,-2.61542 -2.23378,-5.35739 -3.66805,-8.22589 -1.34988,-2.9529 -2.78217,-5.86162 -4.3008,-8.73013 -0.82236,-1.59903 -1.66415,-3.13688 -2.51128,-4.63695 l -2.07129,0 1.29025,3.87566 -10.12419,0 -1.29024,-3.87566 -4.38978,0 z"
       id="text4214-0-4" />
    <path
       inkscape:connector-curvature="0"
       style="font-style:normal;font-weight:normal;font-size:6.25px;line-height:125%;font-family:sans-serif;letter-spacing:0px;word-spacing:0px;fill:#c17d11;fill-opacity:1;stroke:#000000;stroke-width:0.50620872;stroke-linecap:butt;stroke-linejoin:miter;stroke-miterlimit:4;stroke-dasharray:none;stroke-opacity:1"
       d="m 394.13318,499.06656 c -1.3702,-0.27693 -2.56627,0.8586 -2.98092,1.97738 -0.26729,0.7207 0.58182,1.45209 0.6229,2.2196 0.0298,0.55705 -0.0336,1.25547 -0.13849,1.98234 l -6.31278,0 c -0.48168,2.36931 -1.55456,4.31593 -3.24289,5.82337 -2.32058,1.98904 -6.08615,2.98536 -11.25625,3.02044 l 0,4.42933 a 3.7737036,2.3475216 0 0 1 1.25565,-0.13346 3.7737036,2.3475216 0 0 1 3.77184,2.34814 3.7737036,2.3475216 0 0 1 -3.77184,2.34813 3.7737036,2.3475216 0 0 1 -1.25565,-0.13849 l 0,4.07338 4.42439,0 c 2.76839,4.5085 5.33441,8.97252 7.73157,13.40664 -1.10488,-2.04309 -2.23261,-4.09095 -3.41593,-6.14966 l 4.38975,0 1.29027,3.87567 10.12416,0 -1.29024,-3.87567 2.0713,0 c -0.71873,-1.27174 -1.4395,-2.51728 -2.17511,-3.71745 -1.60296,-2.6998 -3.11864,-5.14252 -4.5529,-7.33609 4.30277,-1.94048 7.38319,-4.77078 9.23929,-8.48296 1.45191,-2.90379 2.31869,-6.07138 2.63486,-9.49141 l -6.8714,0 c 0.12269,-0.54611 0.25432,-1.08557 0.42514,-1.48798 0.27724,-0.65275 1.11126,-0.98193 1.26058,-1.71042 0.27668,-1.37015 -0.60721,-2.70414 -1.97738,-2.9809 z"
       id="text4225-2-7" />
    <path
       inkscape:connector-curvature="0"
       style="opacity:1;fill:#73d216;fill-opacity:1;stroke:#000000;stroke-width:0.50620872;stroke-linecap:round;stroke-miterlimit:4;stroke-dasharray:none;stroke-dashoffset:0;stroke-opacity:1"
       d="m 371.82835,476.64805 c -1.26552,0 -2.74196,0.0392 -4.42933,0.12357 -1.68737,0.0843 -3.45811,0.21185 -5.31421,0.38065 -1.85608,0.0843 -3.71022,0.2953 -5.56631,0.63276 -1.77173,0.25311 -3.41988,0.54739 -4.9385,0.88488 l 0,33.5314 6.89117,0 c 0.0277,-0.68851 0.0298,-1.47803 -0.0939,-2.00212 -0.12359,-0.52357 -0.65646,-0.75024 -0.72175,-1.44347 0.0792,-1.02627 0.84344,-1.81944 1.81424,-1.80931 1.00898,0.018 2.03671,0.66915 1.81423,1.80931 -0.076,0.60704 -0.67126,0.95437 -0.81072,1.50773 -0.12735,0.50576 -0.13131,1.26804 -0.10379,1.93786 l 6.77746,0 0,-21.63254 c 0.84368,-0.16884 1.68738,-0.25209 2.53105,-0.25209 0.84367,-0.0843 1.55983,-0.1286 2.15039,-0.1286 2.30664,0 4.3371,0.33512 6.1447,0.93923 l 0.46962,-5.61079 c 0.47,0.0928 0.91415,0.20425 1.25069,0.34601 0.43874,0.18503 0.65621,0.76156 1.15184,0.84535 0.86829,0.14639 1.68796,-0.44163 1.83402,-1.31002 0.14675,-0.87023 -0.43933,-1.69035 -1.31001,-1.83402 -0.43433,-0.0718 -0.8091,0.28984 -1.23094,0.30651 -0.43044,0.018 -0.98209,-0.0463 -1.5473,-0.13345 l 0.54874,-6.55995 c -2.30143,-0.33781 -4.72842,-0.52894 -7.31136,-0.52894 z"
       id="rect4146-3-8" />
    <path
       style="opacity:1;fill:#f57900;fill-opacity:1;fill-rule:nonzero;stroke:#000000;stroke-width:0.50620872;stroke-linecap:round;stroke-miterlimit:4;stroke-dasharray:none;stroke-dashoffset:0;stroke-opacity:1"
       d="m 387.44585,468.61879 -0.52402,6.26826 c 0.5652,0.0871 1.11685,0.15107 1.5473,0.13347 0.42182,-0.018 0.7966,-0.37836 1.23091,-0.30647 0.87068,0.14369 1.45683,0.96378 1.31003,1.83401 -0.14604,0.86839 -0.96572,1.45631 -1.83403,1.31002 -0.49562,-0.0837 -0.71309,-0.66033 -1.15182,-0.84535 -0.33655,-0.14172 -0.7807,-0.25315 -1.25069,-0.34604 l -1.21858,5.66615 c -1.11329,0.17406 1.55463,-0.63591 4.36756,2.17426 2.53103,1.94047 3.79657,4.97674 3.79657,9.11078 0.0777,3.94271 -0.18098,2.51203 -0.0643,2.77822 l 6.31278,0 c 0.10476,-0.72687 0.16831,-1.42529 0.13849,-1.98234 -0.041,-0.76752 -0.89016,-1.49887 -0.62288,-2.2196 0.41462,-1.11877 1.61073,-2.25429 2.9809,-1.97739 1.37016,0.27679 2.25406,1.61074 1.97738,2.9809 -0.14926,0.72848 -0.98336,1.05768 -1.26059,1.71045 -0.17082,0.40238 -0.30238,0.94185 -0.42513,1.48798 l 6.66378,0 c 0.0736,-0.86776 0.11874,-1.7482 0.11874,-2.6497 0,-4.38713 -0.71613,-8.18369 -2.1504,-11.38969 -1.34988,-3.29036 -3.33649,-5.99312 -5.95189,-8.10231 -2.61541,-2.10919 -5.73508,-3.66902 -9.3629,-4.68145 -1.46712,-0.40941 -3.02161,-0.71043 -4.62704,-0.95408 z"
       id="rect4408-7-4"
       inkscape:connector-curvature="0"
       sodipodi:nodetypes="ccccccccccccccccccccscsscc" />
  </g>
</svg>
