<?xml version="1.0" encoding="UTF-8" standalone="no"?>
<!-- Created with Inkscape (http://www.inkscape.org/) -->

<svg
   xmlns:dc="http://purl.org/dc/elements/1.1/"
   xmlns:cc="http://creativecommons.org/ns#"
   xmlns:rdf="http://www.w3.org/1999/02/22-rdf-syntax-ns#"
   xmlns:svg="http://www.w3.org/2000/svg"
   xmlns="http://www.w3.org/2000/svg"
   xmlns:sodipodi="http://sodipodi.sourceforge.net/DTD/sodipodi-0.dtd"
   xmlns:inkscape="http://www.inkscape.org/namespaces/inkscape"
   width="143.15048mm"
   height="29.795671mm"
   viewBox="0 0 507.22611 105.57521"
   id="svg2"
   version="1.1"
   inkscape:version="0.92.3 (2405546, 2018-03-11)"
   sodipodi:docname="IMPRESS logo.svg"
   inkscape:export-filename="/home/rafa/Work/Vivado/Proyectos/webs_proyectos/IMPRESS/images/IMPRESS logo.png"
   inkscape:export-xdpi="400"
   inkscape:export-ydpi="400">
  <defs
     id="defs4" />
  <sodipodi:namedview
     id="base"
     pagecolor="#ffffff"
     bordercolor="#666666"
     borderopacity="1.0"
     inkscape:pageopacity="0.0"
     inkscape:pageshadow="2"
     inkscape:zoom="1.979899"
     inkscape:cx="253.11986"
     inkscape:cy="26.501369"
     inkscape:document-units="px"
     inkscape:current-layer="layer1"
     showgrid="false"
     inkscape:window-width="1920"
     inkscape:window-height="1017"
     inkscape:window-x="-8"
     inkscape:window-y="-8"
     inkscape:window-maximized="1"
     fit-margin-top="0"
     fit-margin-left="0"
     fit-margin-right="0"
     fit-margin-bottom="0" />
  <metadata
     id="metadata7">
    <rdf:RDF>
      <cc:Work
         rdf:about="">
        <dc:format>image/svg+xml</dc:format>
        <dc:type
           rdf:resource="http://purl.org/dc/dcmitype/StillImage" />
        <dc:title />
      </cc:Work>
    </rdf:RDF>
  </metadata>
  <g
     inkscape:label="Layer 1"
     inkscape:groupmode="layer"
     id="layer1"
     transform="translate(-164.7365,-452.19585)">
    <g
       style="font-style:normal;font-weight:normal;font-size:18.61516953px;line-height:125%;font-family:sans-serif;letter-spacing:0px;word-spacing:0px;fill:#000000;fill-opacity:1;stroke:none;stroke-width:1px;stroke-linecap:butt;stroke-linejoin:miter;stroke-opacity:1"
       id="text4142-1-2">
      <path
         d="m 164.7365,555.83508 0,-15.18998 20.10438,0 0,-61.80236 -20.10438,0 0,-15.18998 58.52609,0 0,15.18998 -19.95546,0 0,61.80236 19.95546,0 0,15.18998 -58.52609,0 z"
         style="font-style:normal;font-variant:normal;font-weight:bold;font-stretch:normal;font-size:148.9213562px;font-family:'Ubuntu Mono';-inkscape-font-specification:'Ubuntu Mono Bold';fill:#3465a4;fill-opacity:1"
         id="path4142" />
      <path
         d="m 255.13176,463.65276 q 1.04245,3.12735 2.53167,8.04176 1.63813,4.9144 3.42519,10.57341 1.78705,5.65901 3.57411,11.46695 1.78706,5.80793 3.42519,10.72234 1.78706,-5.5101 3.72304,-11.31803 1.93597,-5.95685 3.72303,-11.31802 1.78706,-5.51009 3.27627,-10.27557 1.48921,-4.76549 2.68058,-7.89284 l 15.18998,0 q 1.04245,12.06263 1.93598,23.52958 1.04245,11.46694 1.63814,22.78497 0.7446,11.1691 1.19137,22.63604 0.44676,11.31802 0.7446,23.23173 l -16.82811,0 0.89353,-71.63117 -11.31803,39.0174 -13.40292,0 -10.87126,-39.0174 0.74461,71.63117 -16.82811,0 q 0.44676,-11.31802 0.89353,-23.52957 0.59568,-12.21155 1.19137,-24.27418 0.59568,-12.06263 1.34029,-23.38066 0.89353,-11.31802 1.93598,-20.99791 l 15.18997,0 z"
         style="font-style:normal;font-variant:normal;font-weight:bold;font-stretch:normal;font-size:148.9213562px;font-family:'Ubuntu Mono';-inkscape-font-specification:'Ubuntu Mono Bold';fill:#3465a4;fill-opacity:1"
         id="path4144" />
      <path
         d="m 338.97449,462.61031 q 17.57272,0 27.25261,7.29715 9.67988,7.14823 9.67988,23.52957 0,16.53028 -9.82881,23.97634 -9.67988,7.29715 -27.55045,7.29715 l -6.55254,0 0,31.12456 -18.31732,0 0,-90.99095 q 2.68058,-0.59568 5.95685,-1.04245 3.42519,-0.44676 6.85038,-0.59568 3.4252,-0.29784 6.70147,-0.44676 3.27626,-0.14893 5.80793,-0.14893 z m 2.0849,15.93459 q -1.63814,0 -4.61657,0.14892 -2.8295,0 -4.46764,0.29784 l 0,29.78427 7.44607,0 q 8.78636,0 13.254,-3.42519 4.46764,-3.57411 4.46764,-12.06263 0,-8.04175 -4.46764,-11.31802 -4.31872,-3.42519 -11.61586,-3.42519 z"
         style="font-style:normal;font-variant:normal;font-weight:bold;font-stretch:normal;font-size:148.9213562px;font-family:'Ubuntu Mono';-inkscape-font-specification:'Ubuntu Mono Bold';fill:#3465a4;fill-opacity:1"
         id="path4146" />
      <path
         d="m 463.91951,555.83508 0,-92.18232 55.8455,0 0,15.18998 -37.52818,0 0,20.70007 32.61378,0 0,15.18998 -32.61378,0 0,25.91231 40.80445,0 0,15.18998 -59.12177,0 z"
         style="font-style:normal;font-variant:normal;font-weight:bold;font-stretch:normal;font-size:148.9213562px;font-family:'Ubuntu Mono';-inkscape-font-specification:'Ubuntu Mono Bold';fill:#3465a4;fill-opacity:1"
         id="path4148" />
      <path
         d="m 563.54791,542.43216 q 4.61656,0 7.59499,-0.89353 3.12735,-1.04245 4.9144,-2.68058 1.78706,-1.78706 2.38274,-3.87196 0.74461,-2.23382 0.74461,-4.46764 0,-2.8295 -1.63813,-5.06332 -1.63814,-2.23382 -4.1698,-3.87196 -2.53167,-1.78706 -5.65901,-3.12735 -3.12735,-1.48921 -6.2547,-2.68058 -4.1698,-1.48922 -8.63744,-3.42519 -4.46764,-1.93598 -8.19067,-4.91441 -3.57412,-2.97842 -5.95686,-7.29714 -2.38274,-4.46764 -2.38274,-11.02018 0,-12.95616 8.3396,-20.25331 8.48851,-7.29715 23.23173,-7.29715 8.48851,0 14.74321,1.93598 6.40362,1.93598 10.72234,4.31872 l -5.36117,14.14753 q -3.72303,-2.0849 -8.3396,-3.57411 -4.46764,-1.48922 -10.42449,-1.48922 -14.59429,0 -14.59429,10.57342 0,2.68058 1.48921,4.76548 1.48921,1.93598 3.72303,3.57412 2.38275,1.48921 5.21225,2.68058 2.97843,1.19137 5.80793,2.23382 4.31872,1.63814 8.93529,3.72304 4.76548,1.93597 8.63743,5.36116 4.02088,3.27627 6.55254,8.3396 2.53167,4.9144 2.53167,12.50939 0,12.95616 -8.48852,20.10439 -8.3396,6.9993 -25.46555,6.9993 -11.46695,0 -18.31733,-2.38274 -6.85038,-2.53166 -10.27557,-4.61656 l 5.36117,-14.89214 q 4.02087,2.38274 9.53096,4.46764 5.65902,2.0849 13.70077,2.0849 z"
         style="font-style:normal;font-variant:normal;font-weight:bold;font-stretch:normal;font-size:148.9213562px;font-family:'Ubuntu Mono';-inkscape-font-specification:'Ubuntu Mono Bold';fill:#3465a4;fill-opacity:1"
         id="path4150" />
      <path
         d="m 638.00857,542.43216 q 4.61656,0 7.59499,-0.89353 3.12735,-1.04245 4.91441,-2.68058 1.78705,-1.78706 2.38274,-3.87196 0.7446,-2.23382 0.7446,-4.46764 0,-2.8295 -1.63813,-5.06332 -1.63814,-2.23382 -4.1698,-3.87196 -2.53166,-1.78706 -5.65901,-3.12735 -3.12735,-1.48921 -6.2547,-2.68058 -4.1698,-1.48922 -8.63744,-3.42519 -4.46764,-1.93598 -8.19067,-4.91441 -3.57411,-2.97842 -5.95686,-7.29714 -2.38274,-4.46764 -2.38274,-11.02018 0,-12.95616 8.3396,-20.25331 8.48852,-7.29715 23.23173,-7.29715 8.48852,0 14.74321,1.93598 6.40362,1.93598 10.72234,4.31872 l -5.36117,14.14753 q -3.72303,-2.0849 -8.33959,-3.57411 -4.46764,-1.48922 -10.4245,-1.48922 -14.59429,0 -14.59429,10.57342 0,2.68058 1.48921,4.76548 1.48922,1.93598 3.72304,3.57412 2.38274,1.48921 5.21224,2.68058 2.97843,1.19137 5.80794,2.23382 4.31872,1.63814 8.93528,3.72304 4.76548,1.93597 8.63744,5.36116 4.02087,3.27627 6.55254,8.3396 2.53166,4.9144 2.53166,12.50939 0,12.95616 -8.48852,20.10439 -8.33959,6.9993 -25.46555,6.9993 -11.46694,0 -18.31733,-2.38274 -6.85038,-2.53166 -10.27557,-4.61656 l 5.36117,-14.89214 q 4.02088,2.38274 9.53097,4.46764 5.65901,2.0849 13.70076,2.0849 z"
         style="font-style:normal;font-variant:normal;font-weight:bold;font-stretch:normal;font-size:148.9213562px;font-family:'Ubuntu Mono';-inkscape-font-specification:'Ubuntu Mono Bold';fill:#3465a4;fill-opacity:1"
         id="path4152" />
    </g>
    <path
       inkscape:connector-curvature="0"
       style="font-style:normal;font-weight:normal;font-size:6.25px;line-height:125%;font-family:sans-serif;letter-spacing:0px;word-spacing:0px;fill:#a765a0;fill-opacity:1;stroke:#000000;stroke-width:0.59568548;stroke-linecap:butt;stroke-linejoin:miter;stroke-miterlimit:4;stroke-dasharray:none;stroke-opacity:1"
       d="m 394.22206,534.73936 c -1.25981,-0.001 -2.28136,1.02052 -2.28035,2.28034 0.11947,0.62126 0.81762,1.06908 0.83188,1.75682 l 0,1.86151 -8.16741,0 0,14.89214 18.31849,0 0,-14.89214 -7.38791,0 0,-1.75682 c 0.58899,-0.64653 0.92233,-1.70259 0.96568,-1.86151 0.30198,-1.67025 -1.01341,-2.2911 -2.28038,-2.28034 z"
       id="text4150-9-1" />
    <path
       inkscape:connector-curvature="0"
       style="font-style:normal;font-weight:normal;font-size:6.25px;line-height:125%;font-family:sans-serif;letter-spacing:0px;word-spacing:0px;fill:#fce94f;fill-opacity:1;stroke:#000000;stroke-width:0.59568548;stroke-linecap:butt;stroke-linejoin:miter;stroke-miterlimit:4;stroke-dasharray:none;stroke-opacity:1"
       d="m 393.8905,497.96274 c -1.14241,-0.0114 -2.04165,0.92147 -2.13494,2.12914 0.0768,0.81575 0.7039,1.08251 0.84933,1.69862 0.14564,0.61671 0.14296,1.5458 0.11049,2.356 l -8.10924,0 0,36.49153 8.1674,0 0,-1.86151 c -0.0149,-0.68774 -0.71244,-1.13556 -0.83186,-1.75682 -0.001,-1.25982 1.02052,-2.28136 2.28034,-2.28034 1.26696,-0.0114 2.58235,0.61009 2.28036,2.28034 -0.0432,0.15904 -0.37667,1.21498 -0.96565,1.86151 l 0,1.75682 7.38789,0 0,-19.05727 4.32801,0 0,-4.7934 a 4.440738,2.7624661 0 0 0 1.4776,0.16292 4.440738,2.7624661 0 0 0 4.43854,-2.76317 4.440738,2.7624661 0 0 0 -4.43854,-2.76321 4.440738,2.7624661 0 0 0 -1.4776,0.15696 l 0,-5.21225 c -0.10934,7.5e-4 -0.19806,0.0179 -0.3083,0.0179 l -4.01971,0 0,-2.23963 -7.97542,0 c -0.0324,-0.78821 -0.0268,-1.68522 0.12212,-2.28037 0.16412,-0.65118 0.86473,-1.0599 0.95403,-1.77425 0.2618,-1.34169 -0.94759,-2.10914 -2.1349,-2.12914 z"
       id="text4173-2-9" />
    <path
       inkscape:connector-curvature="0"
       style="font-style:normal;font-weight:normal;font-size:6.25px;line-height:125%;font-family:sans-serif;letter-spacing:0px;word-spacing:0px;fill:#ef2929;fill-opacity:1;stroke:#000000;stroke-width:0.59568548;stroke-linecap:butt;stroke-linejoin:miter;stroke-miterlimit:4;stroke-dasharray:none;stroke-opacity:1"
       d="m 417.53758,530.12047 c 1.59396,2.77316 3.1288,5.53487 4.60143,8.28374 3.0777,5.46045 5.75595,11.16911 8.03942,17.12596 l 19.20854,0 c -1.19137,-3.07772 -2.62861,-6.30435 -4.3164,-9.67989 -1.58848,-3.47483 -3.27395,-6.89771 -5.061,-10.27325 -0.96773,-1.88167 -1.95832,-3.69133 -2.95517,-5.45656 l -2.43742,0 1.51831,4.56071 -11.9137,0 -1.51832,-4.56071 -5.16569,0 z"
       id="text4214-0-4" />
    <path
       inkscape:connector-curvature="0"
       style="font-style:normal;font-weight:normal;font-size:6.25px;line-height:125%;font-family:sans-serif;letter-spacing:0px;word-spacing:0px;fill:#c17d11;fill-opacity:1;stroke:#000000;stroke-width:0.59568548;stroke-linecap:butt;stroke-linejoin:miter;stroke-miterlimit:4;stroke-dasharray:none;stroke-opacity:1"
       d="m 434.68099,488.69007 c -1.61238,-0.32587 -3.01989,1.01037 -3.50782,2.3269 -0.31452,0.8481 0.68465,1.70875 0.73299,2.61193 0.0352,0.65552 -0.0396,1.47739 -0.16291,2.33273 l -7.42862,0 c -0.56682,2.78813 -1.82935,5.07881 -3.81611,6.85271 -2.73074,2.34062 -7.16192,3.51305 -13.24588,3.55434 l 0,5.21224 a 4.440738,2.7624661 0 0 1 1.4776,-0.15696 4.440738,2.7624661 0 0 1 4.43855,2.7632 4.440738,2.7624661 0 0 1 -4.43855,2.76318 4.440738,2.7624661 0 0 1 -1.4776,-0.16293 l 0,4.7934 5.20644,0 c 3.25772,5.30541 6.27731,10.55849 9.09818,15.77637 -1.30017,-2.40421 -2.62724,-4.81406 -4.01972,-7.23665 l 5.1657,0 1.51831,4.56071 11.91371,0 -1.51831,-4.56071 2.43742,0 c -0.84578,-1.49654 -1.69395,-2.96223 -2.55957,-4.37457 -1.88633,-3.17699 -3.66989,-6.05148 -5.35768,-8.63279 5.06333,-2.28347 8.68825,-5.61404 10.87242,-9.98238 1.70855,-3.41706 2.72853,-7.14456 3.1006,-11.1691 l -8.08597,0 c 0.14444,-0.64265 0.29926,-1.27745 0.50028,-1.75099 0.32623,-0.76813 1.30767,-1.15551 1.4834,-2.01277 0.32558,-1.61233 -0.71455,-3.18211 -2.3269,-3.5078 z"
       id="text4225-2-7" />
    <path
       inkscape:connector-curvature="0"
       style="opacity:1;fill:#73d216;fill-opacity:1;stroke:#000000;stroke-width:0.59568548;stroke-linecap:round;stroke-miterlimit:4;stroke-dasharray:none;stroke-dashoffset:0;stroke-opacity:1"
       d="m 408.4336,462.30888 c -1.48922,0 -3.22663,0.0462 -5.21225,0.14535 -1.98564,0.0992 -4.06936,0.2493 -6.25354,0.44793 -2.18417,0.0992 -4.36604,0.34749 -6.55021,0.7446 -2.08491,0.29785 -4.02436,0.64415 -5.81142,1.04129 l 0,39.45836 8.10925,0 c 0.0324,-0.8102 0.0352,-1.73929 -0.11048,-2.356 -0.14535,-0.61611 -0.77249,-0.88286 -0.84933,-1.69862 0.0933,-1.20767 0.99253,-2.14104 2.13494,-2.12913 1.18732,0.0209 2.39671,0.78743 2.13491,2.12913 -0.0893,0.71434 -0.78992,1.12307 -0.95403,1.77424 -0.14982,0.59516 -0.15458,1.49216 -0.12213,2.28038 l 7.97543,0 0,-25.45626 c 0.9928,-0.19867 1.98563,-0.29666 2.97842,-0.29666 0.9928,-0.0992 1.83555,-0.15129 2.5305,-0.15129 2.71436,0 5.10372,0.39436 7.23083,1.10526 l 0.55265,-6.60255 c 0.55305,0.10934 1.07571,0.24035 1.47175,0.40718 0.51629,0.21772 0.77219,0.89615 1.35543,0.99476 1.02177,0.17215 1.98631,-0.51971 2.15819,-1.54157 0.17275,-1.02405 -0.517,-1.98914 -1.54157,-2.1582 -0.5111,-0.0845 -0.95212,0.34106 -1.4485,0.36069 -0.50655,0.0209 -1.15569,-0.0546 -1.8208,-0.15697 l 0.64572,-7.71948 c -2.70822,-0.3975 -5.56421,-0.62244 -8.6037,-0.62244 z"
       id="rect4146-3-8" />
    <path
       style="opacity:1;fill:#f57900;fill-opacity:1;fill-rule:nonzero;stroke:#000000;stroke-width:0.59568548;stroke-linecap:round;stroke-miterlimit:4;stroke-dasharray:none;stroke-dashoffset:0;stroke-opacity:1"
       d="m 426.81162,452.86039 -0.61665,7.37626 c 0.66511,0.10251 1.31426,0.17781 1.8208,0.15696 0.49638,-0.0209 0.9374,-0.44525 1.4485,-0.36066 1.02457,0.16917 1.71432,1.13416 1.54157,2.1582 -0.17185,1.02186 -1.13642,1.71372 -2.15819,1.54157 -0.58324,-0.0986 -0.83914,-0.77704 -1.35542,-0.99477 -0.39605,-0.16678 -0.91871,-0.29789 -1.47176,-0.4072 l -1.43398,6.66769 c -1.31008,0.20491 1.82942,-0.74831 5.13955,2.55858 2.97842,2.28347 4.46764,5.85642 4.46764,10.72118 0.0915,4.63962 -0.21295,2.95605 -0.0757,3.2693 l 7.4286,0 c 0.12327,-0.85534 0.19807,-1.67721 0.16293,-2.33274 -0.0482,-0.90318 -1.04751,-1.76382 -0.73299,-2.61192 0.48792,-1.31653 1.89544,-2.65277 3.50782,-2.3269 1.61234,0.32568 2.65246,1.89544 2.32689,3.50777 -0.17572,0.85726 -1.15718,1.24464 -1.48341,2.0128 -0.20104,0.47351 -0.35583,1.10833 -0.50028,1.75099 l 7.84165,0 c 0.0867,-1.02115 0.13969,-2.0572 0.13969,-3.11806 0,-5.1626 -0.84271,-9.63024 -2.5305,-13.40292 -1.58848,-3.87195 -3.92624,-7.05244 -7.00395,-9.53445 -3.0777,-2.48201 -6.74878,-4.31757 -11.01785,-5.50893 -1.72645,-0.4818 -3.55571,-0.83602 -5.44493,-1.12272 z"
       id="rect4408-7-4"
       inkscape:connector-curvature="0"
       sodipodi:nodetypes="ccccccccccccccccccccscsscc" />
    <flowRoot
       xml:space="preserve"
       id="flowRoot4154"
       style="font-style:normal;font-weight:normal;line-height:0.01%;font-family:sans-serif;letter-spacing:0px;word-spacing:0px;fill:#000000;fill-opacity:1;stroke:none;stroke-width:1px;stroke-linecap:butt;stroke-linejoin:miter;stroke-opacity:1"><flowRegion
         id="flowRegion4156"><rect
           id="rect4158"
           width="11.616755"
           height="11.111678"
           x="120.71323"
           y="23.752857" /></flowRegion><flowPara
         id="flowPara4160"
         style="font-size:10px;line-height:1.25"> </flowPara></flowRoot>  </g>
</svg>
