<?xml version="1.0" encoding="UTF-8" standalone="no"?>
<!-- Created with Inkscape (http://www.inkscape.org/) -->

<svg
   xmlns:dc="http://purl.org/dc/elements/1.1/"
   xmlns:cc="http://creativecommons.org/ns#"
   xmlns:rdf="http://www.w3.org/1999/02/22-rdf-syntax-ns#"
   xmlns:svg="http://www.w3.org/2000/svg"
   xmlns="http://www.w3.org/2000/svg"
   xmlns:sodipodi="http://sodipodi.sourceforge.net/DTD/sodipodi-0.dtd"
   xmlns:inkscape="http://www.inkscape.org/namespaces/inkscape"
   width="130.55055mm"
   height="119.17281mm"
   viewBox="0 0 130.55055 119.17281"
   version="1.1"
   id="svg8"
   inkscape:version="0.91 r13725"
   sodipodi:docname="run_time_support.svg">
  <defs
     id="defs2">
    <marker
       inkscape:isstock="true"
       style="overflow:visible"
       id="marker14886"
       refX="0"
       refY="0"
       orient="auto"
       inkscape:stockid="Arrow2Sstart">
      <path
         transform="matrix(0.3,0,0,0.3,-0.69,0)"
         d="M 8.7185878,4.0337352 -2.2072895,0.01601326 8.7185884,-4.0017078 c -1.7454984,2.3720609 -1.7354408,5.6174519 -6e-7,8.035443 z"
         style="fill:#489613;fill-opacity:1;fill-rule:evenodd;stroke:#489613;stroke-width:0.625;stroke-linejoin:round;stroke-opacity:1"
         id="path14884"
         inkscape:connector-curvature="0" />
    </marker>
    <marker
       inkscape:isstock="true"
       style="overflow:visible"
       id="marker14780"
       refX="0"
       refY="0"
       orient="auto"
       inkscape:stockid="Arrow2Send">
      <path
         transform="matrix(-0.3,0,0,-0.3,0.69,0)"
         d="M 8.7185878,4.0337352 -2.2072895,0.01601326 8.7185884,-4.0017078 c -1.7454984,2.3720609 -1.7354408,5.6174519 -6e-7,8.035443 z"
         style="fill:#489613;fill-opacity:1;fill-rule:evenodd;stroke:#489613;stroke-width:0.625;stroke-linejoin:round;stroke-opacity:1"
         id="path14778"
         inkscape:connector-curvature="0" />
    </marker>
    <marker
       inkscape:isstock="true"
       style="overflow:visible"
       id="marker13380"
       refX="0"
       refY="0"
       orient="auto"
       inkscape:stockid="Arrow2Sstart">
      <path
         transform="matrix(0.3,0,0,0.3,-0.69,0)"
         d="M 8.7185878,4.0337352 -2.2072895,0.01601326 8.7185884,-4.0017078 c -1.7454984,2.3720609 -1.7354408,5.6174519 -6e-7,8.035443 z"
         style="fill:#1662c8;fill-opacity:1;fill-rule:evenodd;stroke:#1662c8;stroke-width:0.625;stroke-linejoin:round;stroke-opacity:1"
         id="path13378"
         inkscape:connector-curvature="0" />
    </marker>
    <marker
       inkscape:isstock="true"
       style="overflow:visible"
       id="marker13286"
       refX="0"
       refY="0"
       orient="auto"
       inkscape:stockid="Arrow2Send">
      <path
         transform="matrix(-0.3,0,0,-0.3,0.69,0)"
         d="M 8.7185878,4.0337352 -2.2072895,0.01601326 8.7185884,-4.0017078 c -1.7454984,2.3720609 -1.7354408,5.6174519 -6e-7,8.035443 z"
         style="fill:#1662c8;fill-opacity:1;fill-rule:evenodd;stroke:#1662c8;stroke-width:0.625;stroke-linejoin:round;stroke-opacity:1"
         id="path13284"
         inkscape:connector-curvature="0" />
    </marker>
    <marker
       inkscape:stockid="Arrow1Send"
       orient="auto"
       refY="0"
       refX="0"
       id="marker13198"
       style="overflow:visible"
       inkscape:isstock="true">
      <path
         id="path13196"
         d="M 0,0 5,-5 -12.5,0 5,5 0,0 Z"
         style="fill:#000000;fill-opacity:1;fill-rule:evenodd;stroke:#000000;stroke-width:1pt;stroke-opacity:1"
         transform="matrix(-0.2,0,0,-0.2,-1.2,0)"
         inkscape:connector-curvature="0" />
    </marker>
    <marker
       inkscape:stockid="Arrow1Send"
       orient="auto"
       refY="0"
       refX="0"
       id="Arrow1Send"
       style="overflow:visible"
       inkscape:isstock="true">
      <path
         id="path1281"
         d="M 0,0 5,-5 -12.5,0 5,5 0,0 Z"
         style="fill:#000000;fill-opacity:1;fill-rule:evenodd;stroke:#000000;stroke-width:1pt;stroke-opacity:1"
         transform="matrix(-0.2,0,0,-0.2,-1.2,0)"
         inkscape:connector-curvature="0" />
    </marker>
    <marker
       inkscape:stockid="Arrow2Mend"
       orient="auto"
       refY="0"
       refX="0"
       id="Arrow2Mend"
       style="overflow:visible"
       inkscape:isstock="true">
      <path
         id="path1293"
         style="fill:#000000;fill-opacity:1;fill-rule:evenodd;stroke:#000000;stroke-width:0.625;stroke-linejoin:round;stroke-opacity:1"
         d="M 8.7185878,4.0337352 -2.2072895,0.01601326 8.7185884,-4.0017078 c -1.7454984,2.3720609 -1.7354408,5.6174519 -6e-7,8.035443 z"
         transform="scale(-0.6,-0.6)"
         inkscape:connector-curvature="0" />
    </marker>
    <marker
       inkscape:stockid="Arrow1Mend"
       orient="auto"
       refY="0"
       refX="0"
       id="Arrow1Mend"
       style="overflow:visible"
       inkscape:isstock="true">
      <path
         id="path1275"
         d="M 0,0 5,-5 -12.5,0 5,5 0,0 Z"
         style="fill:#000000;fill-opacity:1;fill-rule:evenodd;stroke:#000000;stroke-width:1pt;stroke-opacity:1"
         transform="matrix(-0.4,0,0,-0.4,-4,0)"
         inkscape:connector-curvature="0" />
    </marker>
    <marker
       inkscape:stockid="Arrow2Send"
       orient="auto"
       refY="0"
       refX="0"
       id="marker12572"
       style="overflow:visible"
       inkscape:isstock="true">
      <path
         id="path12570"
         style="fill:#000000;fill-opacity:1;fill-rule:evenodd;stroke:#000000;stroke-width:0.625;stroke-linejoin:round;stroke-opacity:1"
         d="M 8.7185878,4.0337352 -2.2072895,0.01601326 8.7185884,-4.0017078 c -1.7454984,2.3720609 -1.7354408,5.6174519 -6e-7,8.035443 z"
         transform="matrix(-0.3,0,0,-0.3,0.69,0)"
         inkscape:connector-curvature="0" />
    </marker>
    <marker
       inkscape:stockid="Arrow2Send"
       orient="auto"
       refY="0"
       refX="0"
       id="marker5117"
       style="overflow:visible"
       inkscape:isstock="true">
      <path
         id="path5115"
         style="fill:#000000;fill-opacity:1;fill-rule:evenodd;stroke:#000000;stroke-width:0.625;stroke-linejoin:round;stroke-opacity:1"
         d="M 8.7185878,4.0337352 -2.2072895,0.01601326 8.7185884,-4.0017078 c -1.7454984,2.3720609 -1.7354408,5.6174519 -6e-7,8.035443 z"
         transform="matrix(-0.3,0,0,-0.3,0.69,0)"
         inkscape:connector-curvature="0" />
    </marker>
    <marker
       inkscape:stockid="Arrow2Send"
       orient="auto"
       refY="0"
       refX="0"
       id="marker3514"
       style="overflow:visible"
       inkscape:isstock="true">
      <path
         id="path3512"
         style="fill:#000000;fill-opacity:1;fill-rule:evenodd;stroke:#000000;stroke-width:0.625;stroke-linejoin:round;stroke-opacity:1"
         d="M 8.7185878,4.0337352 -2.2072895,0.01601326 8.7185884,-4.0017078 c -1.7454984,2.3720609 -1.7354408,5.6174519 -6e-7,8.035443 z"
         transform="matrix(-0.3,0,0,-0.3,0.69,0)"
         inkscape:connector-curvature="0" />
    </marker>
    <marker
       inkscape:stockid="Arrow2Send"
       orient="auto"
       refY="0"
       refX="0"
       id="Arrow2Send"
       style="overflow:visible"
       inkscape:isstock="true">
      <path
         id="path1299"
         style="fill:#000000;fill-opacity:1;fill-rule:evenodd;stroke:#000000;stroke-width:0.625;stroke-linejoin:round;stroke-opacity:1"
         d="M 8.7185878,4.0337352 -2.2072895,0.01601326 8.7185884,-4.0017078 c -1.7454984,2.3720609 -1.7354408,5.6174519 -6e-7,8.035443 z"
         transform="matrix(-0.3,0,0,-0.3,0.69,0)"
         inkscape:connector-curvature="0" />
    </marker>
  </defs>
  <sodipodi:namedview
     id="base"
     pagecolor="#ffffff"
     bordercolor="#666666"
     borderopacity="1.0"
     inkscape:pageopacity="0.0"
     inkscape:pageshadow="2"
     inkscape:zoom="1.4142136"
     inkscape:cx="185.14906"
     inkscape:cy="240.77505"
     inkscape:document-units="mm"
     inkscape:current-layer="layer1"
     showgrid="true"
     inkscape:window-width="1920"
     inkscape:window-height="1027"
     inkscape:window-x="0"
     inkscape:window-y="0"
     inkscape:window-maximized="1"
     inkscape:snap-grids="false"
     inkscape:snap-global="true"
     fit-margin-top="0"
     fit-margin-left="0"
     fit-margin-right="0"
     fit-margin-bottom="0">
    <inkscape:grid
       type="xygrid"
       id="grid815"
       originx="-88.389992"
       originy="-15.629576" />
  </sodipodi:namedview>
  <metadata
     id="metadata5">
    <rdf:RDF>
      <cc:Work
         rdf:about="">
        <dc:format>image/svg+xml</dc:format>
        <dc:type
           rdf:resource="http://purl.org/dc/dcmitype/StillImage" />
        <dc:title></dc:title>
      </cc:Work>
    </rdf:RDF>
  </metadata>
  <g
     inkscape:label="Capa 1"
     inkscape:groupmode="layer"
     id="layer1"
     transform="translate(-88.389992,-162.19762)">
    <text
       xml:space="preserve"
       style="font-style:normal;font-variant:normal;font-weight:bold;font-stretch:normal;font-size:3.52777767px;line-height:1;font-family:sans-serif;-inkscape-font-specification:'sans-serif Bold';letter-spacing:0px;word-spacing:0px;fill:#000000;fill-opacity:1;stroke:none;stroke-width:0.26458332"
       x="44.979168"
       y="130.3125"
       id="text5316"><tspan
         sodipodi:role="line"
         id="tspan5314"
         x="44.979168"
         y="130.3125"
         style="font-size:3.52777767px;stroke-width:0.26458332" /></text>
    <text
       xml:space="preserve"
       style="font-style:normal;font-variant:normal;font-weight:bold;font-stretch:normal;font-size:2.82222223px;line-height:1;font-family:sans-serif;-inkscape-font-specification:'sans-serif Bold';letter-spacing:0px;word-spacing:0px;fill:#000000;fill-opacity:1;stroke:none;stroke-width:0.26458332"
       x="99.667717"
       y="254.31219"
       id="text9812"><tspan
         sodipodi:role="line"
         x="99.667717"
         y="254.31219"
         style="font-size:2.11666656px;line-height:0;stroke-width:0.26458332"
         id="tspan10187" /></text>
    <rect
       style="opacity:1;fill:#ffffff;fill-opacity:1;stroke:#000000;stroke-width:0.8442986;stroke-linecap:round;stroke-linejoin:miter;stroke-miterlimit:4;stroke-dasharray:none;stroke-dashoffset:0;stroke-opacity:1;paint-order:normal"
       id="rect819-3"
       width="102.39969"
       height="59.164261"
       x="116.11871"
       y="221.78401" />
    <rect
       style="opacity:1;fill:#ffffff;fill-opacity:1;stroke:#000000;stroke-width:0.84429866;stroke-linecap:round;stroke-linejoin:miter;stroke-miterlimit:4;stroke-dasharray:none;stroke-dashoffset:0;stroke-opacity:1;paint-order:normal"
       id="rect819-3-3"
       width="102.39969"
       height="59.164261"
       x="102.46545"
       y="192.20187" />
    <text
       xml:space="preserve"
       style="font-style:normal;font-variant:normal;font-weight:bold;font-stretch:normal;font-size:6.06812954px;line-height:1;font-family:sans-serif;-inkscape-font-specification:'sans-serif Bold';letter-spacing:0px;word-spacing:0px;fill:#000000;fill-opacity:1;stroke:none;stroke-width:0.26458332"
       x="155.8819"
       y="278.72205"
       id="text883-9-4"><tspan
         sodipodi:role="line"
         id="tspan881-8-7"
         x="155.8819"
         y="278.72205"
         style="font-size:4.85450363px;stroke-width:0.26458332">Configuration Memory</tspan></text>
    <text
       xml:space="preserve"
       style="font-style:normal;font-variant:normal;font-weight:bold;font-stretch:normal;font-size:4.85450363px;line-height:1;font-family:sans-serif;-inkscape-font-specification:'sans-serif Bold';letter-spacing:0px;word-spacing:0px;fill:#000000;fill-opacity:1;stroke:none;stroke-width:0.26458332"
       x="123.10371"
       y="259.80197"
       id="text5724-0"><tspan
         sodipodi:role="line"
         id="tspan5722-8"
         x="123.10371"
         y="259.80197"
         style="font-style:normal;font-variant:normal;font-weight:normal;font-stretch:normal;font-family:sans-serif;-inkscape-font-specification:sans-serif;stroke-width:0.26458332">1000011010111010101</tspan><tspan
         sodipodi:role="line"
         x="123.10371"
         y="264.65646"
         style="font-style:normal;font-variant:normal;font-weight:normal;font-stretch:normal;font-family:sans-serif;-inkscape-font-specification:sans-serif;stroke-width:0.26458332"
         id="tspan5726-9">1001100010011110011</tspan><tspan
         sodipodi:role="line"
         x="123.10371"
         y="269.51099"
         style="font-style:normal;font-variant:normal;font-weight:normal;font-stretch:normal;font-family:sans-serif;-inkscape-font-specification:sans-serif;stroke-width:0.26458332"
         id="tspan5728-9">00011011010110011...</tspan></text>
    <text
       xml:space="preserve"
       style="font-style:normal;font-variant:normal;font-weight:bold;font-stretch:normal;font-size:6.06812954px;line-height:1;font-family:sans-serif;-inkscape-font-specification:'sans-serif Bold';letter-spacing:0px;word-spacing:0px;fill:#000000;fill-opacity:1;stroke:none;stroke-width:0.26458332"
       x="169.9632"
       y="248.98065"
       id="text883-9-3-3"><tspan
         sodipodi:role="line"
         id="tspan881-8-4-5"
         x="169.9632"
         y="248.98065"
         style="font-size:4.85450363px;stroke-width:0.26458332">FPGA Fabric</tspan></text>
    <rect
       style="opacity:1;fill:#ffffff;fill-opacity:1;stroke:#000000;stroke-width:0.84429866;stroke-linecap:round;stroke-linejoin:miter;stroke-miterlimit:4;stroke-dasharray:none;stroke-dashoffset:0;stroke-opacity:1;paint-order:normal"
       id="rect819-3-3-4"
       width="102.39969"
       height="59.164261"
       x="88.812141"
       y="162.61977" />
    <text
       xml:space="preserve"
       style="font-style:normal;font-variant:normal;font-weight:bold;font-stretch:normal;font-size:6.06812954px;line-height:1;font-family:sans-serif;-inkscape-font-specification:'sans-serif Bold';letter-spacing:0px;word-spacing:0px;fill:#000000;fill-opacity:1;stroke:none;stroke-width:0.26458332"
       x="163.45398"
       y="219.52237"
       id="text883-5"><tspan
         sodipodi:role="line"
         id="tspan881-3"
         x="163.45398"
         y="219.52237"
         style="font-size:4.85450363px;stroke-width:0.26458332">SW Layer</tspan></text>
    <path
       style="opacity:1;fill:#5fd3bc;fill-opacity:1;stroke:#000000;stroke-width:0.17200997;stroke-linecap:round;stroke-linejoin:round;stroke-miterlimit:4;stroke-dasharray:none;stroke-dashoffset:0;stroke-opacity:1;paint-order:stroke markers fill;marker-end:"
       d="m 163.4583,223.54966 0,1.81333 c -0.10526,0.006 -0.20876,0.009 -0.28532,-0.0137 -0.23045,-0.0675 -0.30534,-0.43182 -0.57599,-0.43201 -0.33552,4e-5 -0.60799,0.28061 -0.60802,0.62667 3e-5,0.34607 0.2725,0.62665 0.60802,0.62666 0.18812,5.8e-4 0.30192,-0.24022 0.48265,-0.2471 0.10921,-0.004 0.24572,0.0468 0.37866,0.10666 l 0,2.07111 -2.98131,0 c -0.0598,0.13296 -0.11048,0.26949 -0.10666,0.37865 0.006,0.18075 0.24768,0.29545 0.24712,0.48356 -3e-5,0.33552 -0.28061,0.60711 -0.62668,0.60713 -0.34606,-2e-5 -0.62664,-0.27161 -0.62666,-0.60713 1.9e-4,-0.27066 0.36464,-0.34643 0.432,-0.57688 0.0224,-0.0765 0.0216,-0.17994 0.0137,-0.28533 l -3.17866,0 0,-1.99645 c -0.13176,-0.0592 -0.26694,-0.10857 -0.37512,-0.10488 -0.18073,0.006 -0.29453,0.24768 -0.48265,0.24711 -0.33551,-1e-5 -0.60799,-0.28059 -0.608,-0.62666 1e-5,-0.34606 0.27249,-0.62666 0.608,-0.62666 0.27065,1.9e-4 0.34554,0.36465 0.57598,0.43199 0.0757,0.0222 0.17773,0.0214 0.28179,0.0137 l 0,-1.88977 z"
       id="rect6905-9-93-9-8-2-34"
       inkscape:connector-curvature="0" />
    <path
       style="opacity:1;fill:#ffd42a;fill-opacity:1;stroke:#000000;stroke-width:0.17200997;stroke-linecap:round;stroke-linejoin:round;stroke-miterlimit:4;stroke-dasharray:none;stroke-dashoffset:0;stroke-opacity:1;paint-order:stroke markers fill;marker-end:"
       d="m 163.45875,228.10032 0,1.81333 c -0.10526,0.006 -0.20877,0.009 -0.28533,-0.0137 -0.23044,-0.0675 -0.30535,-0.43182 -0.57601,-0.43201 -0.33551,4e-5 -0.60797,0.28061 -0.60799,0.62668 2e-5,0.34606 0.27248,0.62664 0.60799,0.62666 0.18813,5.7e-4 0.30195,-0.24022 0.48268,-0.24711 0.1092,-0.004 0.2457,0.0468 0.37866,0.10666 l 0,2.07111 -2.98133,0 c -0.0598,0.13296 -0.11048,0.26949 -0.10666,0.37865 0.006,0.18075 0.24768,0.29545 0.24711,0.48356 -2e-5,0.33553 -0.2806,0.60711 -0.62666,0.60713 -0.34607,-2e-5 -0.62665,-0.2716 -0.62665,-0.60713 1.6e-4,-0.27065 0.36464,-0.34643 0.43198,-0.57688 0.0224,-0.0765 0.0216,-0.17994 0.0138,-0.28533 l -3.17865,0 0,-1.99644 c -0.13177,-0.0592 -0.26695,-0.10858 -0.37512,-0.10488 -0.18072,0.006 -0.29454,0.24767 -0.48266,0.2471 -0.33552,-1e-5 -0.60799,-0.28059 -0.60799,-0.62666 0,-0.34605 0.27247,-0.62666 0.60799,-0.62666 0.27065,1.9e-4 0.34556,0.36465 0.576,0.432 0.0757,0.0221 0.17771,0.0213 0.28178,0.0137 l 0,-1.88977 3.17865,0 c 0.006,0.10539 0.009,0.20872 -0.0138,0.28533 -0.0675,0.23045 -0.43182,0.30623 -0.43198,0.57688 0,0.33552 0.28058,0.6071 0.62665,0.60711 0.34606,-1e-5 0.62664,-0.27159 0.62666,-0.60711 5.7e-4,-0.18812 -0.24022,-0.30281 -0.24711,-0.48354 -0.004,-0.10921 0.0468,-0.24571 0.10666,-0.37867 z"
       id="rect6905-9-93-9-8-2-81"
       inkscape:connector-curvature="0" />
    <path
       style="opacity:1;fill:#ffd42a;fill-opacity:1;stroke:#000000;stroke-width:0.17200997;stroke-linecap:round;stroke-linejoin:round;stroke-miterlimit:4;stroke-dasharray:none;stroke-dashoffset:0;stroke-opacity:1;paint-order:stroke markers fill;marker-end:"
       d="m 163.4583,232.65186 0,1.81333 c -0.10526,0.006 -0.20876,0.009 -0.28532,-0.0138 -0.23045,-0.0675 -0.30535,-0.43182 -0.57602,-0.43201 -0.3355,4e-5 -0.60796,0.28061 -0.60799,0.62668 3e-5,0.34606 0.27249,0.62664 0.60799,0.62666 0.18814,5.7e-4 0.30195,-0.24022 0.48268,-0.24711 0.10921,-0.004 0.24571,0.0468 0.37866,0.10666 l 0,2.0711 -2.98132,0 c -0.0598,0.13297 -0.11048,0.2695 -0.10666,0.37866 0.006,0.18075 0.24767,0.29545 0.2471,0.48356 -1e-5,0.33553 -0.28059,0.60711 -0.62666,0.60712 -0.34607,-1e-5 -0.62665,-0.27159 -0.62665,-0.60712 1.7e-4,-0.27065 0.36464,-0.34643 0.43199,-0.57688 0.0224,-0.0765 0.0216,-0.17994 0.0137,-0.28534 l -3.17865,0 0,-1.99643 c -0.13176,-0.0592 -0.26695,-0.10858 -0.37511,-0.10488 -0.18073,0.006 -0.29454,0.24767 -0.48268,0.2471 -0.3355,-1e-5 -0.60797,-0.2806 -0.60797,-0.62667 0,-0.34604 0.27247,-0.62665 0.60797,-0.62665 0.27067,1.9e-4 0.34557,0.36465 0.57601,0.432 0.0757,0.0221 0.1777,0.0214 0.28178,0.0137 l 0,-1.88978 3.17865,0 c 0.006,0.10552 0.009,0.20872 -0.0137,0.28534 -0.0675,0.23043 -0.43182,0.30623 -0.43199,0.57688 0,0.3355 0.28058,0.6071 0.62665,0.60711 0.34607,-1e-5 0.62665,-0.27161 0.62666,-0.60711 5.7e-4,-0.18812 -0.24022,-0.30281 -0.2471,-0.48355 -0.004,-0.10921 0.0468,-0.2457 0.10666,-0.37867 z"
       id="rect6905-9-93-9-8-2-81-7"
       inkscape:connector-curvature="0" />
    <path
       style="opacity:1;fill:#ffd42a;fill-opacity:1;stroke:#000000;stroke-width:0.17200997;stroke-linecap:round;stroke-linejoin:round;stroke-miterlimit:4;stroke-dasharray:none;stroke-dashoffset:0;stroke-opacity:1;paint-order:stroke markers fill;marker-end:"
       d="m 163.4583,237.20295 0,1.81333 c -0.10526,0.006 -0.20876,0.009 -0.28532,-0.0137 -0.23045,-0.0675 -0.30535,-0.43181 -0.57602,-0.432 -0.3355,4e-5 -0.60796,0.2806 -0.60799,0.62667 3e-5,0.34607 0.27249,0.62665 0.60799,0.62666 0.18814,5.7e-4 0.30195,-0.24023 0.48268,-0.24711 0.10921,-0.004 0.24571,0.0468 0.37866,0.10667 l 0,2.0711 -2.98132,0 c -0.0598,0.13298 -0.11048,0.26951 -0.10666,0.37867 0.006,0.18075 0.24767,0.29544 0.2471,0.48355 -1e-5,0.33552 -0.28059,0.60711 -0.62666,0.60713 -0.34607,-2e-5 -0.62665,-0.27161 -0.62665,-0.60713 1.7e-4,-0.27065 0.36464,-0.34642 0.43199,-0.57689 0.0224,-0.0765 0.0216,-0.17994 0.0137,-0.28533 l -3.17865,0 0,-1.99643 c -0.13176,-0.0592 -0.26695,-0.10857 -0.37511,-0.10488 -0.18073,0.006 -0.29454,0.24768 -0.48268,0.24712 -0.3355,-2e-5 -0.60797,-0.2806 -0.60797,-0.62667 0,-0.34604 0.27247,-0.62665 0.60797,-0.62665 0.27067,1.9e-4 0.34557,0.36465 0.57601,0.43198 0.0757,0.0221 0.1777,0.0214 0.28178,0.0137 l 0,-1.88977 3.17865,0 c 0.006,0.10539 0.009,0.20872 -0.0137,0.28533 -0.0675,0.23044 -0.43182,0.30624 -0.43199,0.57689 0,0.3355 0.28058,0.6071 0.62665,0.60711 0.34607,-1e-5 0.62665,-0.27161 0.62666,-0.60711 5.7e-4,-0.18812 -0.24022,-0.30283 -0.2471,-0.48355 -0.004,-0.10921 0.0468,-0.2457 0.10666,-0.37867 z"
       id="rect6905-9-93-9-8-2-81-6"
       inkscape:connector-curvature="0" />
    <path
       style="opacity:1;fill:#ffd42a;fill-opacity:1;stroke:#000000;stroke-width:0.17200997;stroke-linecap:round;stroke-linejoin:round;stroke-miterlimit:4;stroke-dasharray:none;stroke-dashoffset:0;stroke-opacity:1;paint-order:stroke markers fill;marker-end:"
       d="m 163.4583,241.75405 0,1.81334 c -0.10526,0.006 -0.20876,0.009 -0.28532,-0.0137 -0.23045,-0.0675 -0.30535,-0.43181 -0.57602,-0.43201 -0.3355,4e-5 -0.60796,0.28061 -0.60799,0.62668 3e-5,0.34606 0.27249,0.62664 0.60799,0.62666 0.18814,5.7e-4 0.30195,-0.24023 0.48268,-0.24711 0.10921,-0.004 0.24571,0.0468 0.37866,0.10666 l 0,2.0711 -2.98132,0 c -0.0598,0.13297 -0.11048,0.26951 -0.10666,0.37866 0.006,0.18076 0.24767,0.29545 0.2471,0.48356 -1e-5,0.33553 -0.28059,0.60711 -0.62666,0.60712 -0.34607,-1e-5 -0.62665,-0.27159 -0.62665,-0.60712 1.7e-4,-0.27065 0.36464,-0.34642 0.43199,-0.57689 0.0224,-0.0765 0.0216,-0.17994 0.0137,-0.28533 l -3.17865,0 0,-1.99643 c -0.13176,-0.0592 -0.26695,-0.10857 -0.37511,-0.10488 -0.18073,0.006 -0.29454,0.24768 -0.48268,0.24712 -0.3355,-3e-5 -0.60797,-0.28061 -0.60797,-0.62668 0,-0.34604 0.27247,-0.62664 0.60797,-0.62664 0.27067,1.9e-4 0.34557,0.36465 0.57601,0.43198 0.0757,0.0221 0.1777,0.0214 0.28178,0.0137 l 0,-1.88978 3.17865,0 c 0.006,0.10552 0.009,0.20872 -0.0137,0.28534 -0.0675,0.23043 -0.43182,0.30623 -0.43199,0.57688 0,0.33551 0.28058,0.6071 0.62665,0.60711 0.34607,-1e-5 0.62665,-0.2716 0.62666,-0.60711 5.7e-4,-0.18812 -0.24022,-0.30281 -0.2471,-0.48355 -0.004,-0.10921 0.0468,-0.2457 0.10666,-0.37867 z"
       id="rect6905-9-93-9-8-2-81-9"
       inkscape:connector-curvature="0" />
    <path
       style="opacity:1;fill:#5fd3bc;fill-opacity:1;stroke:#000000;stroke-width:0.17200997;stroke-linecap:round;stroke-linejoin:round;stroke-miterlimit:4;stroke-dasharray:none;stroke-dashoffset:0;stroke-opacity:1;paint-order:stroke markers fill;marker-end:"
       d="m 156.63166,223.54966 0,1.81333 c -0.10526,0.006 -0.20877,0.009 -0.28534,-0.0137 -0.23043,-0.0675 -0.30532,-0.43182 -0.57599,-0.43201 -0.3355,4e-5 -0.60799,0.28061 -0.608,0.62667 1e-5,0.34607 0.2725,0.62665 0.608,0.62666 0.18814,5.8e-4 0.30193,-0.24022 0.48267,-0.2471 0.10921,-0.004 0.24572,0.0468 0.37866,0.10666 l 0,2.07111 -2.98131,0 c -0.0598,0.13296 -0.11048,0.26949 -0.10666,0.37865 0.006,0.18075 0.24768,0.29545 0.2471,0.48356 -10e-6,0.33552 -0.28059,0.60711 -0.62666,0.60713 -0.34606,-2e-5 -0.62665,-0.27161 -0.62667,-0.60713 1.9e-4,-0.27066 0.36465,-0.34643 0.43201,-0.57688 0.0224,-0.0765 0.0216,-0.17994 0.0137,-0.28533 l -3.17865,0 0,-1.99645 c -0.13176,-0.0592 -0.26695,-0.10857 -0.37512,-0.10488 -0.18073,0.006 -0.29453,0.24768 -0.48266,0.24711 -0.33551,-1e-5 -0.60798,-0.28059 -0.60801,-0.62666 3e-5,-0.34606 0.2725,-0.62666 0.60801,-0.62666 0.27066,1.9e-4 0.34555,0.36465 0.57599,0.43199 0.0757,0.0222 0.17773,0.0214 0.28179,0.0137 l 0,-1.88977 z"
       id="rect6905-9-93-9-8-2-34-7"
       inkscape:connector-curvature="0" />
    <path
       style="opacity:1;fill:#ffd42a;fill-opacity:1;stroke:#000000;stroke-width:0.17200997;stroke-linecap:round;stroke-linejoin:round;stroke-miterlimit:4;stroke-dasharray:none;stroke-dashoffset:0;stroke-opacity:1;paint-order:stroke markers fill;marker-end:"
       d="m 156.63166,228.10077 0,1.81332 c -0.10526,0.006 -0.20877,0.009 -0.28534,-0.0137 -0.23043,-0.0675 -0.30535,-0.43182 -0.576,-0.432 -0.3355,3e-5 -0.60798,0.28059 -0.60799,0.62666 1e-5,0.34607 0.27249,0.62665 0.60799,0.62667 0.18812,5.6e-4 0.30194,-0.24023 0.48268,-0.24711 0.10921,-0.004 0.24569,0.0468 0.37866,0.10666 l 0,2.0711 -2.98134,0 c -0.0598,0.13296 -0.11048,0.26951 -0.10666,0.37867 0.006,0.18074 0.24768,0.29543 0.24711,0.48354 -2e-5,0.33553 -0.2806,0.60711 -0.62666,0.60714 -0.34607,-3e-5 -0.62666,-0.27161 -0.62666,-0.60714 1.8e-4,-0.27065 0.36465,-0.34642 0.43199,-0.57688 0.0224,-0.0765 0.0216,-0.17994 0.0138,-0.28533 l -3.17867,0 0,-1.99644 c -0.13176,-0.0592 -0.26693,-0.10857 -0.3751,-0.10488 -0.18072,0.006 -0.29454,0.24768 -0.48267,0.24711 -0.33551,-2e-5 -0.60799,-0.2806 -0.60799,-0.62666 0,-0.34606 0.27248,-0.62666 0.60799,-0.62666 0.27066,1.9e-4 0.34557,0.36465 0.57601,0.43199 0.0757,0.0222 0.1777,0.0214 0.28176,0.0138 l 0,-1.88977 3.17867,0 c 0.006,0.10539 0.009,0.20872 -0.0138,0.28533 -0.0675,0.23044 -0.43181,0.30623 -0.43199,0.57688 0,0.33551 0.28059,0.60709 0.62666,0.60711 0.34606,-2e-5 0.62664,-0.2716 0.62666,-0.60711 5.7e-4,-0.18813 -0.24023,-0.30282 -0.24711,-0.48355 -0.004,-0.1092 0.0468,-0.2457 0.10666,-0.37866 z"
       id="rect6905-9-93-9-8-2-81-1"
       inkscape:connector-curvature="0" />
    <path
       style="opacity:1;fill:#ffd42a;fill-opacity:1;stroke:#000000;stroke-width:0.17200997;stroke-linecap:round;stroke-linejoin:round;stroke-miterlimit:4;stroke-dasharray:none;stroke-dashoffset:0;stroke-opacity:1;paint-order:stroke markers fill;marker-end:"
       d="m 156.63921,232.65191 0,1.81333 c -0.10526,0.006 -0.20877,0.009 -0.28533,-0.0137 -0.23044,-0.0675 -0.30535,-0.43182 -0.57601,-0.43201 -0.3355,4e-5 -0.60796,0.28061 -0.60799,0.62668 3e-5,0.34606 0.27249,0.62664 0.60799,0.62666 0.18812,5.7e-4 0.30195,-0.24022 0.48268,-0.24711 0.1092,-0.004 0.2457,0.0468 0.37866,0.10666 l 0,2.07111 -2.98133,0 c -0.0598,0.13296 -0.11048,0.26949 -0.10666,0.37865 0.006,0.18075 0.24768,0.29545 0.24711,0.48356 -2e-5,0.33553 -0.2806,0.60711 -0.62666,0.60713 -0.34607,-2e-5 -0.62665,-0.2716 -0.62665,-0.60713 1.7e-4,-0.27065 0.36464,-0.34642 0.43198,-0.57688 0.0224,-0.0765 0.0216,-0.17994 0.0137,-0.28533 l -3.17866,0 0,-1.99644 c -0.13175,-0.0592 -0.26694,-0.10857 -0.3751,-0.10488 -0.18073,0.006 -0.29455,0.24767 -0.48268,0.2471 -0.33551,-1e-5 -0.60798,-0.2806 -0.60798,-0.62667 0,-0.34604 0.27247,-0.62665 0.60798,-0.62665 0.27066,1.9e-4 0.34557,0.36465 0.57601,0.432 0.0757,0.0221 0.1777,0.0214 0.28177,0.0137 l 0,-1.88977 3.17866,0 c 0.006,0.10539 0.009,0.20872 -0.0137,0.28533 -0.0675,0.23045 -0.43181,0.30623 -0.43198,0.57688 0,0.33551 0.28058,0.6071 0.62665,0.60711 0.34606,-1e-5 0.62664,-0.2716 0.62666,-0.60711 5.7e-4,-0.18812 -0.24022,-0.30281 -0.24711,-0.48355 -0.004,-0.10921 0.0468,-0.2457 0.10666,-0.37866 z"
       id="rect6905-9-93-9-8-2-81-7-1"
       inkscape:connector-curvature="0" />
    <path
       style="opacity:1;fill:#ffd42a;fill-opacity:1;stroke:#000000;stroke-width:0.17200997;stroke-linecap:round;stroke-linejoin:round;stroke-miterlimit:4;stroke-dasharray:none;stroke-dashoffset:0;stroke-opacity:1;paint-order:stroke markers fill;marker-end:"
       d="m 156.63921,237.203 0,1.81333 c -0.10526,0.006 -0.20877,0.009 -0.28533,-0.0137 -0.23044,-0.0675 -0.30535,-0.43182 -0.57601,-0.43201 -0.3355,4e-5 -0.60796,0.2806 -0.60799,0.62667 3e-5,0.34607 0.27249,0.62665 0.60799,0.62666 0.18812,5.4e-4 0.30195,-0.24023 0.48268,-0.2471 0.1092,-0.004 0.2457,0.0468 0.37866,0.10666 l 0,2.07109 -2.98133,0 c -0.0598,0.13297 -0.11048,0.26951 -0.10666,0.37867 0.006,0.18075 0.24768,0.29544 0.24711,0.48355 -2e-5,0.33553 -0.2806,0.60711 -0.62666,0.60713 -0.34607,-2e-5 -0.62665,-0.2716 -0.62665,-0.60713 1.7e-4,-0.27065 0.36464,-0.34642 0.43198,-0.57689 0.0224,-0.0765 0.0216,-0.17994 0.0137,-0.28533 l -3.17866,0 0,-1.99643 c -0.13175,-0.0592 -0.26694,-0.10857 -0.3751,-0.10488 -0.18073,0.006 -0.29455,0.24768 -0.48268,0.24712 -0.33551,-3e-5 -0.60798,-0.28061 -0.60798,-0.62667 0,-0.34605 0.27247,-0.62665 0.60798,-0.62665 0.27066,1.9e-4 0.34557,0.36465 0.57601,0.43198 0.0757,0.0222 0.1777,0.0214 0.28177,0.0138 l 0,-1.88977 3.17866,0 c 0.006,0.10539 0.009,0.20872 -0.0137,0.28533 -0.0675,0.23044 -0.43181,0.30624 -0.43198,0.57689 0,0.3355 0.28058,0.6071 0.62665,0.60711 0.34606,-1e-5 0.62664,-0.27161 0.62666,-0.60711 5.7e-4,-0.18812 -0.24022,-0.30283 -0.24711,-0.48356 -0.004,-0.1092 0.0468,-0.24569 0.10666,-0.37866 z"
       id="rect6905-9-93-9-8-2-81-6-2"
       inkscape:connector-curvature="0" />
    <path
       style="opacity:1;fill:#ffd42a;fill-opacity:1;stroke:#000000;stroke-width:0.17200997;stroke-linecap:round;stroke-linejoin:round;stroke-miterlimit:4;stroke-dasharray:none;stroke-dashoffset:0;stroke-opacity:1;paint-order:stroke markers fill;marker-end:"
       d="m 156.63921,241.7541 0,1.81334 c -0.10526,0.006 -0.20877,0.009 -0.28533,-0.0138 -0.23044,-0.0675 -0.30535,-0.43181 -0.57601,-0.432 -0.3355,3e-5 -0.60796,0.2806 -0.60799,0.62667 3e-5,0.34606 0.27249,0.62665 0.60799,0.62666 0.18812,5.3e-4 0.30195,-0.24023 0.48268,-0.24711 0.1092,-0.004 0.2457,0.0468 0.37866,0.10667 l 0,2.07109 -2.98133,0 c -0.0598,0.13297 -0.11048,0.26951 -0.10666,0.37866 0.006,0.18076 0.24768,0.29545 0.24711,0.48356 -2e-5,0.33553 -0.2806,0.60711 -0.62666,0.60712 -0.34607,-1e-5 -0.62665,-0.27159 -0.62665,-0.60712 1.7e-4,-0.27065 0.36464,-0.34642 0.43198,-0.57688 0.0224,-0.0765 0.0216,-0.17995 0.0137,-0.28534 l -3.17866,0 0,-1.99643 c -0.13175,-0.0592 -0.26694,-0.10857 -0.3751,-0.10488 -0.18073,0.006 -0.29455,0.24766 -0.48268,0.2471 -0.33551,-1e-5 -0.60798,-0.2806 -0.60798,-0.62667 0,-0.34604 0.27247,-0.62665 0.60798,-0.62665 0.27066,1.9e-4 0.34557,0.36465 0.57601,0.43199 0.0757,0.0221 0.1777,0.0214 0.28177,0.0137 l 0,-1.88978 3.17866,0 c 0.006,0.10552 0.009,0.20872 -0.0137,0.28534 -0.0675,0.23043 -0.43181,0.30623 -0.43198,0.57688 0,0.3355 0.28058,0.6071 0.62665,0.60711 0.34606,-1e-5 0.62664,-0.27161 0.62666,-0.60711 5.7e-4,-0.18812 -0.24022,-0.30281 -0.24711,-0.48356 -0.004,-0.1092 0.0468,-0.24569 0.10666,-0.37866 z"
       id="rect6905-9-93-9-8-2-81-9-5"
       inkscape:connector-curvature="0" />
    <path
       style="opacity:1;fill:#ffd42a;fill-opacity:1;stroke:#000000;stroke-width:0.17200997;stroke-linecap:round;stroke-linejoin:round;stroke-miterlimit:4;stroke-dasharray:none;stroke-dashoffset:0;stroke-opacity:1;paint-order:stroke markers fill;marker-end:"
       d="m 149.81257,228.10032 0,1.81333 c -0.10526,0.006 -0.20877,0.009 -0.28534,-0.0137 -0.23043,-0.0675 -0.30535,-0.43182 -0.576,-0.43201 -0.33551,4e-5 -0.60798,0.28061 -0.60799,0.62668 1e-5,0.34606 0.27248,0.62664 0.60799,0.62666 0.18812,5.7e-4 0.30193,-0.24022 0.48267,-0.24711 0.10921,-0.004 0.2457,0.0468 0.37867,0.10666 l 0,2.07111 -2.98134,0 c -0.0598,0.13296 -0.11048,0.26949 -0.10666,0.37865 0.006,0.18075 0.24768,0.29545 0.2471,0.48356 -10e-6,0.33553 -0.2806,0.60711 -0.62667,0.60713 -0.34607,-2e-5 -0.62665,-0.2716 -0.62665,-0.60713 1.8e-4,-0.27065 0.36465,-0.34643 0.432,-0.57688 0.0224,-0.0765 0.0216,-0.17994 0.0137,-0.28533 l -3.17866,0 0,-1.99644 c -0.13176,-0.0592 -0.26694,-0.10858 -0.3751,-0.10488 -0.18073,0.006 -0.29456,0.24767 -0.48268,0.2471 -0.3355,-1e-5 -0.60799,-0.28059 -0.60799,-0.62666 0,-0.34605 0.27249,-0.62666 0.60799,-0.62666 0.27067,1.9e-4 0.34557,0.36465 0.57602,0.432 0.0757,0.0221 0.17769,0.0213 0.28176,0.0137 l 0,-1.88977 3.17866,0 c 0.006,0.10539 0.009,0.20872 -0.0137,0.28533 -0.0675,0.23045 -0.43182,0.30623 -0.432,0.57688 0,0.33552 0.28058,0.6071 0.62665,0.60711 0.34607,-1e-5 0.62666,-0.27159 0.62667,-0.60711 5.8e-4,-0.18812 -0.24023,-0.30281 -0.2471,-0.48354 -0.004,-0.10921 0.0468,-0.24571 0.10666,-0.37867 z"
       id="rect6905-9-93-9-8-2-81-1-1"
       inkscape:connector-curvature="0" />
    <path
       style="opacity:1;fill:#ffd42a;fill-opacity:1;stroke:#000000;stroke-width:0.17200997;stroke-linecap:round;stroke-linejoin:round;stroke-miterlimit:4;stroke-dasharray:none;stroke-dashoffset:0;stroke-opacity:1;paint-order:stroke markers fill;marker-end:"
       d="m 149.82012,232.65146 0,1.81333 c -0.10527,0.006 -0.20877,0.009 -0.28533,-0.0137 -0.23045,-0.0675 -0.30536,-0.43182 -0.57602,-0.43201 -0.3355,4e-5 -0.60796,0.2806 -0.60798,0.62667 2e-5,0.34607 0.27248,0.62665 0.60798,0.62666 0.18813,5.6e-4 0.30195,-0.24023 0.48268,-0.2471 0.10921,-0.004 0.2457,0.0468 0.37867,0.10666 l 0,2.07109 -2.98133,0 c -0.0598,0.13297 -0.11048,0.26951 -0.10666,0.37867 0.006,0.18075 0.24768,0.29544 0.2471,0.48355 -1e-5,0.33553 -0.28059,0.60711 -0.62666,0.60713 -0.34606,-2e-5 -0.62664,-0.2716 -0.62664,-0.60713 1.6e-4,-0.27065 0.36463,-0.34642 0.43198,-0.57688 0.0224,-0.0765 0.0216,-0.17995 0.0137,-0.28534 l -3.17866,0 0,-1.99643 c -0.13175,-0.0592 -0.26693,-0.10857 -0.3751,-0.10488 -0.18073,0.006 -0.29454,0.24767 -0.48268,0.24711 -0.3355,-2e-5 -0.60799,-0.28061 -0.60799,-0.62668 0,-0.34604 0.27249,-0.62664 0.60799,-0.62664 0.27067,1.9e-4 0.34557,0.36465 0.57602,0.43198 0.0757,0.0222 0.1777,0.0214 0.28176,0.0137 l 0,-1.88978 3.17866,0 c 0.006,0.10552 0.009,0.20872 -0.0137,0.28534 -0.0675,0.23044 -0.43182,0.30623 -0.43198,0.57688 0,0.33551 0.28058,0.6071 0.62664,0.60711 0.34607,-1e-5 0.62665,-0.2716 0.62666,-0.60711 5.8e-4,-0.18812 -0.24023,-0.30281 -0.2471,-0.48355 -0.004,-0.10921 0.0468,-0.24569 0.10666,-0.37867 z"
       id="rect6905-9-93-9-8-2-81-7-1-1"
       inkscape:connector-curvature="0" />
    <path
       style="opacity:1;fill:#ffd42a;fill-opacity:1;stroke:#000000;stroke-width:0.17200997;stroke-linecap:round;stroke-linejoin:round;stroke-miterlimit:4;stroke-dasharray:none;stroke-dashoffset:0;stroke-opacity:1;paint-order:stroke markers fill;marker-end:"
       d="m 149.82012,237.20255 0,1.81334 c -0.10527,0.006 -0.20877,0.009 -0.28533,-0.0138 -0.23045,-0.0675 -0.30536,-0.43182 -0.57602,-0.43201 -0.3355,4e-5 -0.60796,0.28061 -0.60798,0.62666 2e-5,0.34607 0.27248,0.62666 0.60798,0.62668 0.18813,5.4e-4 0.30195,-0.24024 0.48268,-0.24711 0.10921,-0.004 0.2457,0.0468 0.37867,0.10666 l 0,2.07111 -2.98133,0 c -0.0598,0.13297 -0.11048,0.26951 -0.10666,0.37866 0.006,0.18076 0.24768,0.29545 0.2471,0.48356 -1e-5,0.33552 -0.28059,0.60711 -0.62666,0.60712 -0.34606,-1e-5 -0.62664,-0.2716 -0.62664,-0.60712 1.6e-4,-0.27067 0.36463,-0.34644 0.43198,-0.57689 0.0224,-0.0765 0.0216,-0.17994 0.0137,-0.28533 l -3.17866,0 0,-1.99643 c -0.13175,-0.0592 -0.26693,-0.10857 -0.3751,-0.10488 -0.18073,0.006 -0.29454,0.24768 -0.48268,0.24712 -0.3355,-3e-5 -0.60799,-0.28061 -0.60799,-0.62668 0,-0.34605 0.27249,-0.62664 0.60799,-0.62664 0.27067,1.9e-4 0.34557,0.36463 0.57602,0.43198 0.0757,0.0222 0.1777,0.0214 0.28176,0.0137 l 0,-1.88976 3.17866,0 c 0.006,0.10539 0.009,0.20871 -0.0137,0.28532 -0.0675,0.23045 -0.43182,0.30623 -0.43198,0.5769 0,0.3355 0.28058,0.60709 0.62664,0.60711 0.34607,-2e-5 0.62665,-0.27161 0.62666,-0.60711 5.8e-4,-0.18813 -0.24023,-0.30283 -0.2471,-0.48356 -0.004,-0.10921 0.0468,-0.24569 0.10666,-0.37866 z"
       id="rect6905-9-93-9-8-2-81-6-2-7"
       inkscape:connector-curvature="0" />
    <path
       style="opacity:1;fill:#ffd42a;fill-opacity:1;stroke:#000000;stroke-width:0.17200997;stroke-linecap:round;stroke-linejoin:round;stroke-miterlimit:4;stroke-dasharray:none;stroke-dashoffset:0;stroke-opacity:1;paint-order:stroke markers fill;marker-end:"
       d="m 149.82012,241.75366 0,1.81333 c -0.10527,0.006 -0.20877,0.009 -0.28533,-0.0137 -0.23045,-0.0675 -0.30536,-0.43182 -0.57602,-0.43201 -0.3355,4e-5 -0.60796,0.28061 -0.60798,0.62667 2e-5,0.34607 0.27248,0.62665 0.60798,0.62666 0.18813,5.5e-4 0.30195,-0.24023 0.48268,-0.2471 0.10921,-0.004 0.2457,0.0468 0.37867,0.10666 l 0,2.07109 -2.98133,0 c -0.0598,0.13298 -0.11048,0.26951 -0.10666,0.37867 0.006,0.18075 0.24768,0.29544 0.2471,0.48355 -1e-5,0.33553 -0.28059,0.60711 -0.62666,0.60713 -0.34606,-2e-5 -0.62664,-0.2716 -0.62664,-0.60713 1.6e-4,-0.27065 0.36463,-0.34642 0.43198,-0.57689 0.0224,-0.0765 0.0216,-0.17994 0.0137,-0.28533 l -3.17866,0 0,-1.99643 c -0.13175,-0.0592 -0.26693,-0.10857 -0.3751,-0.10488 -0.18073,0.006 -0.29454,0.24768 -0.48268,0.24712 -0.3355,-2e-5 -0.60799,-0.28061 -0.60799,-0.62667 0,-0.34604 0.27249,-0.62665 0.60799,-0.62665 0.27067,1.9e-4 0.34557,0.36465 0.57602,0.43198 0.0757,0.0221 0.1777,0.0214 0.28176,0.0137 l 0,-1.88977 3.17866,0 c 0.006,0.10539 0.009,0.20872 -0.0137,0.28533 -0.0675,0.23044 -0.43182,0.30624 -0.43198,0.57689 0,0.3355 0.28058,0.6071 0.62664,0.60711 0.34607,-1e-5 0.62665,-0.27161 0.62666,-0.60711 5.8e-4,-0.18812 -0.24023,-0.30283 -0.2471,-0.48356 -0.004,-0.1092 0.0468,-0.24569 0.10666,-0.37866 z"
       id="rect6905-9-93-9-8-2-81-9-5-5"
       inkscape:connector-curvature="0" />
    <path
       style="opacity:1;fill:#5fd3bc;fill-opacity:1;stroke:#000000;stroke-width:0.17200997;stroke-linecap:round;stroke-linejoin:round;stroke-miterlimit:4;stroke-dasharray:none;stroke-dashoffset:0;stroke-opacity:1;paint-order:stroke markers fill;marker-end:"
       d="m 149.80501,223.54966 0,1.81333 c -0.10526,0.006 -0.20877,0.009 -0.28533,-0.0137 -0.23044,-0.0675 -0.30534,-0.43182 -0.57599,-0.43201 -0.3355,4e-5 -0.60799,0.28061 -0.608,0.62667 1e-5,0.34607 0.2725,0.62665 0.608,0.62666 0.18812,5.8e-4 0.30193,-0.24022 0.48265,-0.2471 0.10921,-0.004 0.24572,0.0468 0.37867,0.10666 l 0,2.07111 -2.98131,0 c -0.0598,0.13296 -0.11049,0.26949 -0.10667,0.37865 0.006,0.18075 0.24768,0.29545 0.24711,0.48356 -10e-6,0.33552 -0.2806,0.60711 -0.62666,0.60713 -0.34607,-2e-5 -0.62666,-0.27161 -0.62667,-0.60713 1.9e-4,-0.27066 0.36465,-0.34643 0.432,-0.57688 0.0224,-0.0765 0.0216,-0.17994 0.0138,-0.28533 l -3.17866,0 0,-1.99645 c -0.13177,-0.0592 -0.26694,-0.10857 -0.37512,-0.10488 -0.18074,0.006 -0.29453,0.24768 -0.48266,0.24711 -0.33551,-1e-5 -0.60799,-0.28059 -0.608,-0.62666 1e-5,-0.34606 0.27249,-0.62666 0.608,-0.62666 0.27066,1.9e-4 0.34555,0.36465 0.57599,0.43199 0.0757,0.0222 0.17772,0.0214 0.28179,0.0137 l 0,-1.88977 z"
       id="rect6905-9-93-9-8-2-34-7-8"
       inkscape:connector-curvature="0" />
    <path
       style="opacity:1;fill:#5f8dd3;fill-opacity:1;stroke:#000000;stroke-width:0.17200997;stroke-linecap:round;stroke-linejoin:round;stroke-miterlimit:4;stroke-dasharray:none;stroke-dashoffset:0;stroke-opacity:1;paint-order:stroke fill markers;marker-end:"
       d="m 142.97837,223.55678 0,1.81333 c -0.10527,0.006 -0.20877,0.009 -0.28533,-0.0137 -0.23045,-0.0675 -0.30534,-0.43182 -0.57599,-0.43201 -0.33552,4e-5 -0.60799,0.28059 -0.60801,0.62666 2e-5,0.34607 0.27249,0.62666 0.60801,0.62667 0.18812,5.7e-4 0.30192,-0.24023 0.48265,-0.2471 0.10921,-0.004 0.24572,0.0468 0.37867,0.10666 l 0,2.07111 -2.98132,0 c -0.0598,0.13295 -0.11048,0.2695 -0.10666,0.37866 0.006,0.18075 0.24768,0.29545 0.24712,0.48356 -3e-5,0.33551 -0.28061,0.60711 -0.62667,0.60712 -0.34607,-1e-5 -0.62665,-0.27161 -0.62666,-0.60712 1.9e-4,-0.27067 0.36463,-0.34644 0.43199,-0.5769 0.0224,-0.0765 0.0216,-0.17993 0.0137,-0.28532 l -3.17865,0 0,-4.5511 z"
       id="rect6905-9-93-9-8-2-8-4"
       inkscape:connector-curvature="0" />
    <path
       style="opacity:1;fill:#d38d5f;fill-opacity:1;stroke:#000000;stroke-width:0.17200997;stroke-linecap:round;stroke-linejoin:round;stroke-miterlimit:4;stroke-dasharray:none;stroke-dashoffset:0;stroke-opacity:1;paint-order:stroke markers fill;marker-end:"
       d="m 142.97837,228.10077 0,1.81332 c -0.10527,0.006 -0.20878,0.009 -0.28533,-0.0137 -0.23046,-0.0675 -0.30535,-0.43182 -0.57602,-0.432 -0.3355,3e-5 -0.60796,0.28059 -0.608,0.62666 4e-5,0.34607 0.2725,0.62665 0.608,0.62667 0.18814,5.6e-4 0.30194,-0.24023 0.48268,-0.24711 0.10921,-0.004 0.24571,0.0468 0.37867,0.10666 l 0,2.0711 -2.98133,0 c -0.0598,0.13296 -0.11048,0.26951 -0.10666,0.37867 0.006,0.18074 0.24768,0.29543 0.2471,0.48354 -1e-5,0.33553 -0.28059,0.60711 -0.62666,0.60714 -0.34606,-3e-5 -0.62664,-0.27161 -0.62667,-0.60714 1.9e-4,-0.27065 0.36466,-0.34642 0.43201,-0.57688 0.0224,-0.0765 0.0216,-0.17994 0.0137,-0.28533 l -3.17865,0 0,-4.55109 3.17865,0 c 0.006,0.10539 0.009,0.20872 -0.0137,0.28533 -0.0675,0.23044 -0.43182,0.30623 -0.43201,0.57689 3e-5,0.3355 0.28061,0.60709 0.62667,0.60711 0.34607,-2e-5 0.62665,-0.27161 0.62666,-0.60711 5.8e-4,-0.18813 -0.24022,-0.30283 -0.2471,-0.48356 -0.004,-0.1092 0.0468,-0.2457 0.10666,-0.37866 z"
       id="rect6905-9-93-9-8-2-3-7"
       inkscape:connector-curvature="0" />
    <path
       style="opacity:1;fill:#d38d5f;fill-opacity:1;stroke:#000000;stroke-width:0.17200997;stroke-linecap:round;stroke-linejoin:round;stroke-miterlimit:4;stroke-dasharray:none;stroke-dashoffset:0;stroke-opacity:1;paint-order:stroke markers fill;marker-end:"
       d="m 142.97837,232.65186 0,1.81333 c -0.10527,0.006 -0.20877,0.009 -0.28533,-0.0138 -0.23045,-0.0675 -0.30534,-0.43182 -0.57599,-0.43201 -0.33552,4e-5 -0.60799,0.28061 -0.60801,0.62668 2e-5,0.34606 0.27249,0.62664 0.60801,0.62666 0.18812,5.7e-4 0.30192,-0.24022 0.48265,-0.24711 0.10921,-0.004 0.24572,0.0468 0.37867,0.10666 l 0,2.0711 -2.98132,0 c -0.0598,0.13297 -0.11048,0.2695 -0.10666,0.37866 0.006,0.18075 0.24768,0.29545 0.24712,0.48356 -3e-5,0.33553 -0.28061,0.60711 -0.62667,0.60712 -0.34607,-1e-5 -0.62665,-0.27159 -0.62666,-0.60712 1.9e-4,-0.27065 0.36463,-0.34643 0.43199,-0.57688 0.0224,-0.0765 0.0216,-0.17994 0.0137,-0.28534 l -3.17865,0 0,-4.55109 3.17865,0 c 0.006,0.10539 0.009,0.20872 -0.0137,0.28533 -0.0675,0.23045 -0.4318,0.30623 -0.43199,0.57688 1e-5,0.33552 0.28059,0.6071 0.62666,0.60711 0.34606,-1e-5 0.62664,-0.27159 0.62667,-0.60711 5.6e-4,-0.18812 -0.24023,-0.30281 -0.24712,-0.48354 -0.004,-0.10921 0.0468,-0.24571 0.10666,-0.37867 z"
       id="rect6905-9-93-9-8-2-3-0"
       inkscape:connector-curvature="0" />
    <path
       style="opacity:1;fill:#d38d5f;fill-opacity:1;stroke:#000000;stroke-width:0.17200997;stroke-linecap:round;stroke-linejoin:round;stroke-miterlimit:4;stroke-dasharray:none;stroke-dashoffset:0;stroke-opacity:1;paint-order:stroke markers fill;marker-end:"
       d="m 142.97837,237.20295 0,1.81333 c -0.10527,0.006 -0.20877,0.009 -0.28533,-0.0137 -0.23045,-0.0675 -0.30534,-0.43181 -0.57599,-0.432 -0.33552,4e-5 -0.60799,0.2806 -0.60801,0.62667 2e-5,0.34607 0.27249,0.62665 0.60801,0.62666 0.18812,5.7e-4 0.30192,-0.24023 0.48265,-0.24711 0.10921,-0.004 0.24572,0.0468 0.37867,0.10667 l 0,2.0711 -2.98132,0 c -0.0598,0.13298 -0.11048,0.26951 -0.10666,0.37867 0.006,0.18075 0.24768,0.29544 0.24712,0.48355 -3e-5,0.33552 -0.28061,0.60711 -0.62667,0.60713 -0.34607,-2e-5 -0.62665,-0.27161 -0.62666,-0.60713 1.9e-4,-0.27065 0.36463,-0.34642 0.43199,-0.57689 0.0224,-0.0765 0.0216,-0.17994 0.0137,-0.28533 l -3.17865,0 0,-4.55109 3.17865,0 c 0.006,0.10552 0.009,0.20872 -0.0137,0.28534 -0.0675,0.23043 -0.4318,0.30623 -0.43199,0.57688 1e-5,0.3355 0.28059,0.6071 0.62666,0.60711 0.34606,-1e-5 0.62664,-0.27161 0.62667,-0.60711 5.6e-4,-0.18812 -0.24023,-0.30282 -0.24712,-0.48356 -0.004,-0.1092 0.0468,-0.24569 0.10666,-0.37866 z"
       id="rect6905-9-93-9-8-2-3-9"
       inkscape:connector-curvature="0" />
    <path
       style="opacity:1;fill:#d38d5f;fill-opacity:1;stroke:#000000;stroke-width:0.17200997;stroke-linecap:round;stroke-linejoin:round;stroke-miterlimit:4;stroke-dasharray:none;stroke-dashoffset:0;stroke-opacity:1;paint-order:stroke markers fill;marker-end:"
       d="m 142.97837,241.75405 0,1.81334 c -0.10527,0.006 -0.20878,0.009 -0.28533,-0.0137 -0.23046,-0.0675 -0.30535,-0.43181 -0.57602,-0.43201 -0.3355,4e-5 -0.60796,0.28061 -0.608,0.62668 4e-5,0.34606 0.2725,0.62664 0.608,0.62666 0.18814,5.7e-4 0.30194,-0.24023 0.48268,-0.24711 0.10921,-0.004 0.24571,0.0468 0.37867,0.10666 l 0,2.0711 -2.98133,0 c -0.0598,0.13297 -0.11048,0.26951 -0.10666,0.37866 0.006,0.18076 0.24768,0.29545 0.2471,0.48356 -1e-5,0.33553 -0.28059,0.60711 -0.62666,0.60712 -0.34606,-1e-5 -0.62664,-0.27159 -0.62667,-0.60712 1.9e-4,-0.27065 0.36466,-0.34642 0.43201,-0.57689 0.0224,-0.0765 0.0216,-0.17994 0.0137,-0.28533 l -3.17865,0 0,-4.55108 3.17865,0 c 0.006,0.10539 0.009,0.20871 -0.0137,0.28532 -0.0675,0.23045 -0.43182,0.30623 -0.43201,0.57688 3e-5,0.33551 0.28061,0.6071 0.62667,0.60711 0.34607,-10e-6 0.62665,-0.2716 0.62666,-0.60711 5.8e-4,-0.18812 -0.24022,-0.30281 -0.2471,-0.48355 -0.004,-0.10921 0.0468,-0.24569 0.10666,-0.37865 z"
       id="rect6905-9-93-9-8-2-3-4"
       inkscape:connector-curvature="0" />
    <path
       style="fill:none;stroke:#000000;stroke-width:0.45510969px;stroke-linecap:butt;stroke-linejoin:miter;stroke-opacity:1;marker-end:"
       d="m 173.18467,234.3914 -6.37153,0"
       id="path10036"
       inkscape:connector-curvature="0" />
    <rect
       style="opacity:1;fill:none;fill-opacity:1;stroke:#000000;stroke-width:0.46543872;stroke-linecap:round;stroke-linejoin:round;stroke-miterlimit:8;stroke-dasharray:none;stroke-dashoffset:0;stroke-opacity:1;paint-order:stroke markers fill"
       id="rect10128"
       width="24.311739"
       height="7.0175657"
       x="106.19574"
       y="231.65829"
       ry="1.9450262" />
    <text
       xml:space="preserve"
       style="font-style:normal;font-variant:normal;font-weight:bold;font-stretch:normal;font-size:2.42725182px;line-height:1;font-family:sans-serif;-inkscape-font-specification:'sans-serif Bold';letter-spacing:0px;word-spacing:0px;fill:#000000;fill-opacity:1;stroke:none;stroke-width:0.26458332"
       x="107.6423"
       y="234.69774"
       id="text10181"><tspan
         sodipodi:role="line"
         id="tspan10179"
         x="107.6423"
         y="234.69774"
         style="stroke-width:0.26458332">Reconfiguration </tspan><tspan
         sodipodi:role="line"
         x="107.6423"
         y="237.12498"
         style="stroke-width:0.26458332"
         id="tspan10183">engine</tspan></text>
    <path
       inkscape:connector-curvature="0"
       style="fill:none;stroke:#000000;stroke-width:0.31066507;stroke-linecap:butt;stroke-linejoin:miter;stroke-miterlimit:8;stroke-dasharray:none;stroke-opacity:1;marker-end:"
       d="m 177.73067,232.21292 c -0.22737,-1.37771 0.94417,-2.64598 2.61867,-2.83248 0.67762,-0.0759 1.36731,0.0372 1.95909,0.32203 0.62493,-0.97109 2.0871,-1.34039 3.26619,-0.82438 0.20478,0.0906 0.39452,0.20518 0.56015,0.33945 0.48791,-0.80448 1.6745,-1.13151 2.6518,-0.72987 0.27107,0.11073 0.50597,0.27107 0.68969,0.46877 0.78603,-0.75973 2.17443,-0.85424 3.10051,-0.2089 0.39003,0.27106 0.65204,0.6441 0.7424,1.05689 1.28749,0.28847 2.04641,1.38393 1.69706,2.44456 -0.0299,0.0895 -0.0676,0.17664 -0.1115,0.26235 1.03301,1.10539 0.78005,2.69073 -0.56467,3.53998 -0.41863,0.26485 -0.91253,0.43521 -1.43507,0.49737 -0.0102,1.1887 -1.19262,2.14614 -2.63974,2.13617 -0.48339,-10e-4 -0.95772,-0.11544 -1.36731,-0.327 -0.4894,1.3342 -2.19703,2.08768 -3.8128,1.68482 -0.67762,-0.17047 -1.2634,-0.5272 -1.65645,-1.01337 -1.65489,0.82189 -3.80373,0.37924 -4.7976,-0.98728 -0.0137,-0.0172 -0.0256,-0.0337 -0.0377,-0.051 -1.0827,0.10322 -2.06449,-0.53221 -2.191,-1.42123 -0.0677,-0.47376 0.12194,-0.9475 0.51953,-1.29566 -0.93814,-0.45508 -1.25287,-1.45231 -0.70323,-2.22818 0.31623,-0.44762 0.87189,-0.74356 1.49531,-0.79704 z"
       id="path6337-8" />
    <text
       xml:space="preserve"
       style="font-style:normal;font-variant:normal;font-weight:bold;font-stretch:normal;font-size:2.42725182px;line-height:1;font-family:sans-serif;-inkscape-font-specification:'sans-serif Bold';letter-spacing:0px;word-spacing:0px;fill:#000000;fill-opacity:1;stroke:none;stroke-width:0.26458332"
       x="181.02878"
       y="233.78755"
       id="text10193"><tspan
         sodipodi:role="line"
         id="tspan10191"
         x="181.02878"
         y="233.78755"
         style="stroke-width:0.26458332">Static </tspan><tspan
         sodipodi:role="line"
         x="181.02878"
         y="236.2148"
         style="stroke-width:0.26458332"
         id="tspan10195">System</tspan></text>
    <text
       xml:space="preserve"
       style="font-style:normal;font-variant:normal;font-weight:bold;font-stretch:normal;font-size:3.64087749px;line-height:1;font-family:sans-serif;-inkscape-font-specification:'sans-serif Bold';letter-spacing:0px;word-spacing:0px;fill:#000000;fill-opacity:1;stroke:none;stroke-width:0.26458332"
       x="96.091141"
       y="202.10574"
       id="text916-5-9"><tspan
         sodipodi:role="line"
         x="96.091141"
         y="202.10574"
         style="stroke-width:0.26458332"
         id="tspan992-7">Fine-Grain</tspan><tspan
         sodipodi:role="line"
         x="96.091141"
         y="205.74663"
         style="stroke-width:0.26458332"
         id="tspan1029-5">Frames</tspan></text>
    <rect
       style="opacity:1;fill:#a0501b;fill-opacity:1;stroke:#000000;stroke-width:0.08600499;stroke-linecap:round;stroke-linejoin:miter;stroke-miterlimit:4;stroke-dasharray:none;stroke-dashoffset:0;stroke-opacity:1;paint-order:normal"
       id="rect921-64"
       width="0.91021937"
       height="11.832852"
       x="98.369446"
       y="207.22049" />
    <rect
       style="opacity:1;fill:#a0501b;fill-opacity:1;stroke:#000000;stroke-width:0.08600499;stroke-linecap:round;stroke-linejoin:miter;stroke-miterlimit:4;stroke-dasharray:none;stroke-dashoffset:0;stroke-opacity:1;paint-order:normal"
       id="rect921-8-1"
       width="0.91021937"
       height="11.832852"
       x="100.18989"
       y="207.22049" />
    <rect
       style="opacity:1;fill:#a0501b;fill-opacity:1;stroke:#000000;stroke-width:0.08600499;stroke-linecap:round;stroke-linejoin:miter;stroke-miterlimit:4;stroke-dasharray:none;stroke-dashoffset:0;stroke-opacity:1;paint-order:normal"
       id="rect921-0-5"
       width="0.91021937"
       height="11.832852"
       x="102.01034"
       y="207.22049" />
    <rect
       style="opacity:1;fill:#3346e9;fill-opacity:1;stroke:#000000;stroke-width:0.08600499;stroke-linecap:round;stroke-linejoin:miter;stroke-miterlimit:4;stroke-dasharray:none;stroke-dashoffset:0;stroke-opacity:1;paint-order:normal"
       id="rect921-80-9"
       width="0.91021937"
       height="11.832852"
       x="103.83076"
       y="207.22049" />
    <rect
       style="opacity:1;fill:#3346e9;fill-opacity:1;stroke:#000000;stroke-width:0.08600499;stroke-linecap:round;stroke-linejoin:miter;stroke-miterlimit:4;stroke-dasharray:none;stroke-dashoffset:0;stroke-opacity:1;paint-order:normal"
       id="rect921-7-6"
       width="0.91021937"
       height="11.832852"
       x="105.65121"
       y="207.22049" />
    <rect
       style="opacity:1;fill:#327a39;fill-opacity:1;stroke:#000000;stroke-width:0.08600499;stroke-linecap:round;stroke-linejoin:miter;stroke-miterlimit:4;stroke-dasharray:none;stroke-dashoffset:0;stroke-opacity:1;paint-order:normal"
       id="rect921-84-4"
       width="0.91021937"
       height="11.832852"
       x="107.47166"
       y="207.22049" />
    <rect
       style="opacity:1;fill:#327a39;fill-opacity:1;stroke:#000000;stroke-width:0.08600499;stroke-linecap:round;stroke-linejoin:miter;stroke-miterlimit:4;stroke-dasharray:none;stroke-dashoffset:0;stroke-opacity:1;paint-order:normal"
       id="rect921-6-0"
       width="0.91021937"
       height="11.832852"
       x="109.29208"
       y="207.22049" />
    <rect
       style="opacity:1;fill:#327a39;fill-opacity:1;stroke:#000000;stroke-width:0.08600499;stroke-linecap:round;stroke-linejoin:miter;stroke-miterlimit:4;stroke-dasharray:none;stroke-dashoffset:0;stroke-opacity:1;paint-order:normal"
       id="rect921-5-4"
       width="0.91021937"
       height="11.832852"
       x="111.11253"
       y="207.22049" />
    <path
       style="fill:none;stroke:#000000;stroke-width:0.47106889;stroke-linecap:butt;stroke-linejoin:miter;stroke-miterlimit:4;stroke-dasharray:none;stroke-opacity:1;marker-end:"
       d="m 94.057366,173.67806 -0.910219,0 0,22.75549 0.910219,0"
       id="path846"
       inkscape:connector-curvature="0" />
    <path
       style="fill:none;stroke:#000000;stroke-width:0.47106889;stroke-linecap:butt;stroke-linejoin:miter;stroke-miterlimit:4;stroke-dasharray:none;stroke-opacity:1;marker-end:"
       d="m 114.99242,173.67806 0.91022,0 0,22.75549 -0.91022,0"
       id="path846-5"
       inkscape:connector-curvature="0" />
    <text
       xml:space="preserve"
       style="font-style:normal;font-variant:normal;font-weight:bold;font-stretch:normal;font-size:3.64087749px;line-height:1;font-family:sans-serif;-inkscape-font-specification:'sans-serif Bold';letter-spacing:0px;word-spacing:0px;fill:#000000;fill-opacity:1;stroke:none;stroke-width:0.26458332"
       x="92.368271"
       y="168.38734"
       id="text916-1"><tspan
         sodipodi:role="line"
         id="tspan914-6"
         x="92.368271"
         y="168.38734"
         style="stroke-width:0.26458332">2D Virtual </tspan><tspan
         sodipodi:role="line"
         x="92.368271"
         y="172.02823"
         style="stroke-width:0.26458332"
         id="tspan1119">Architecture</tspan></text>
    <rect
       style="opacity:1;fill:#ffd42a;fill-opacity:1;stroke:#000000;stroke-width:0.08600499;stroke-linecap:round;stroke-linejoin:miter;stroke-miterlimit:4;stroke-dasharray:none;stroke-dashoffset:0;stroke-opacity:1;paint-order:normal"
       id="rect1139-02"
       width="1.8204387"
       height="1.8204387"
       x="-103.15958"
       y="193.24776"
       transform="scale(-1,1)" />
    <rect
       style="opacity:1;fill:#d38d5f;fill-opacity:1;stroke:#000000;stroke-width:0.08600499;stroke-linecap:round;stroke-linejoin:miter;stroke-miterlimit:4;stroke-dasharray:none;stroke-dashoffset:0;stroke-opacity:1;paint-order:normal"
       id="rect1139-6"
       width="1.8204387"
       height="1.8204387"
       x="-98.608459"
       y="193.24776"
       transform="scale(-1,1)" />
    <rect
       style="opacity:1;fill:#ffd42a;fill-opacity:1;stroke:#000000;stroke-width:0.08600499;stroke-linecap:round;stroke-linejoin:miter;stroke-miterlimit:4;stroke-dasharray:none;stroke-dashoffset:0;stroke-opacity:1;paint-order:normal"
       id="rect1139-02-6"
       width="1.8204387"
       height="1.8204387"
       x="-107.71068"
       y="193.24776"
       transform="scale(-1,1)" />
    <rect
       style="opacity:1;fill:#ffd42a;fill-opacity:1;stroke:#000000;stroke-width:0.08600499;stroke-linecap:round;stroke-linejoin:miter;stroke-miterlimit:4;stroke-dasharray:none;stroke-dashoffset:0;stroke-opacity:1;paint-order:normal"
       id="rect1139-02-8"
       width="1.8204387"
       height="1.8204387"
       x="-112.26177"
       y="193.24776"
       transform="scale(-1,1)" />
    <rect
       style="opacity:1;fill:#ffd42a;fill-opacity:1;stroke:#000000;stroke-width:0.08600499;stroke-linecap:round;stroke-linejoin:miter;stroke-miterlimit:4;stroke-dasharray:none;stroke-dashoffset:0;stroke-opacity:1;paint-order:normal"
       id="rect1139-02-3"
       width="1.8204387"
       height="1.8204387"
       x="-112.26177"
       y="188.69662"
       transform="scale(-1,1)" />
    <rect
       style="opacity:1;fill:#ffd42a;fill-opacity:1;stroke:#000000;stroke-width:0.08600499;stroke-linecap:round;stroke-linejoin:miter;stroke-miterlimit:4;stroke-dasharray:none;stroke-dashoffset:0;stroke-opacity:1;paint-order:normal"
       id="rect1139-02-64"
       width="1.8204387"
       height="1.8204387"
       x="-107.71068"
       y="188.69662"
       transform="scale(-1,1)" />
    <rect
       style="opacity:1;fill:#ffd42a;fill-opacity:1;stroke:#000000;stroke-width:0.08600499;stroke-linecap:round;stroke-linejoin:miter;stroke-miterlimit:4;stroke-dasharray:none;stroke-dashoffset:0;stroke-opacity:1;paint-order:normal"
       id="rect1139-02-32"
       width="1.8204387"
       height="1.8204387"
       x="-103.15958"
       y="188.69662"
       transform="scale(-1,1)" />
    <rect
       style="opacity:1;fill:#ffd42a;fill-opacity:1;stroke:#000000;stroke-width:0.08600499;stroke-linecap:round;stroke-linejoin:miter;stroke-miterlimit:4;stroke-dasharray:none;stroke-dashoffset:0;stroke-opacity:1;paint-order:normal"
       id="rect1139-02-1"
       width="1.8204387"
       height="1.8204387"
       x="-103.15958"
       y="184.14554"
       transform="scale(-1,1)" />
    <rect
       style="opacity:1;fill:#ffd42a;fill-opacity:1;stroke:#000000;stroke-width:0.08600499;stroke-linecap:round;stroke-linejoin:miter;stroke-miterlimit:4;stroke-dasharray:none;stroke-dashoffset:0;stroke-opacity:1;paint-order:normal"
       id="rect1139-02-5"
       width="1.8204387"
       height="1.8204387"
       x="-107.71068"
       y="184.14554"
       transform="scale(-1,1)" />
    <rect
       style="opacity:1;fill:#ffd42a;fill-opacity:1;stroke:#000000;stroke-width:0.08600499;stroke-linecap:round;stroke-linejoin:miter;stroke-miterlimit:4;stroke-dasharray:none;stroke-dashoffset:0;stroke-opacity:1;paint-order:normal"
       id="rect1139-02-66"
       width="1.8204387"
       height="1.8204387"
       x="-112.26177"
       y="184.14554"
       transform="scale(-1,1)" />
    <rect
       style="opacity:1;fill:#ffd42a;fill-opacity:1;stroke:#000000;stroke-width:0.08600499;stroke-linecap:round;stroke-linejoin:miter;stroke-miterlimit:4;stroke-dasharray:none;stroke-dashoffset:0;stroke-opacity:1;paint-order:normal"
       id="rect1139-02-9"
       width="1.8204387"
       height="1.8204387"
       x="-103.15958"
       y="179.59445"
       transform="scale(-1,1)" />
    <rect
       style="opacity:1;fill:#ffd42a;fill-opacity:1;stroke:#000000;stroke-width:0.08600499;stroke-linecap:round;stroke-linejoin:miter;stroke-miterlimit:4;stroke-dasharray:none;stroke-dashoffset:0;stroke-opacity:1;paint-order:normal"
       id="rect1139-02-65"
       width="1.8204387"
       height="1.8204387"
       x="-107.71068"
       y="179.59445"
       transform="scale(-1,1)" />
    <rect
       style="opacity:1;fill:#ffd42a;fill-opacity:1;stroke:#000000;stroke-width:0.08600499;stroke-linecap:round;stroke-linejoin:miter;stroke-miterlimit:4;stroke-dasharray:none;stroke-dashoffset:0;stroke-opacity:1;paint-order:normal"
       id="rect1139-02-93"
       width="1.8204387"
       height="1.8204387"
       x="-112.26177"
       y="179.59445"
       transform="scale(-1,1)" />
    <rect
       style="opacity:1;fill:#d38d5f;fill-opacity:1;stroke:#000000;stroke-width:0.08600499;stroke-linecap:round;stroke-linejoin:miter;stroke-miterlimit:4;stroke-dasharray:none;stroke-dashoffset:0;stroke-opacity:1;paint-order:normal"
       id="rect1139-6-9"
       width="1.8204387"
       height="1.8204387"
       x="-98.608459"
       y="188.69662"
       transform="scale(-1,1)" />
    <rect
       style="opacity:1;fill:#d38d5f;fill-opacity:1;stroke:#000000;stroke-width:0.08600499;stroke-linecap:round;stroke-linejoin:miter;stroke-miterlimit:4;stroke-dasharray:none;stroke-dashoffset:0;stroke-opacity:1;paint-order:normal"
       id="rect1139-6-8"
       width="1.8204387"
       height="1.8204387"
       x="-98.608459"
       y="184.14554"
       transform="scale(-1,1)" />
    <rect
       style="opacity:1;fill:#d38d5f;fill-opacity:1;stroke:#000000;stroke-width:0.08600499;stroke-linecap:round;stroke-linejoin:miter;stroke-miterlimit:4;stroke-dasharray:none;stroke-dashoffset:0;stroke-opacity:1;paint-order:normal"
       id="rect1139-6-97"
       width="1.8204387"
       height="1.8204387"
       x="-98.608459"
       y="179.59445"
       transform="scale(-1,1)" />
    <rect
       style="opacity:1;fill:#5f8dd3;fill-opacity:1;stroke:#000000;stroke-width:0.08600499;stroke-linecap:round;stroke-linejoin:miter;stroke-miterlimit:4;stroke-dasharray:none;stroke-dashoffset:0;stroke-opacity:1;paint-order:normal"
       id="rect1139-6-7"
       width="1.8204387"
       height="1.8204387"
       x="-98.608459"
       y="175.04333"
       transform="scale(-1,1)" />
    <rect
       style="opacity:1;fill:#5fd3bc;fill-opacity:1;stroke:#000000;stroke-width:0.08600499;stroke-linecap:round;stroke-linejoin:miter;stroke-miterlimit:4;stroke-dasharray:none;stroke-dashoffset:0;stroke-opacity:1;paint-order:normal"
       id="rect1139-6-0"
       width="1.8204387"
       height="1.8204387"
       x="-103.15958"
       y="175.04333"
       transform="scale(-1,1)" />
    <rect
       style="opacity:1;fill:#5fd3bc;fill-opacity:1;stroke:#000000;stroke-width:0.08600499;stroke-linecap:round;stroke-linejoin:miter;stroke-miterlimit:4;stroke-dasharray:none;stroke-dashoffset:0;stroke-opacity:1;paint-order:normal"
       id="rect1139-6-0-2"
       width="1.8204387"
       height="1.8204387"
       x="-107.71068"
       y="175.04333"
       transform="scale(-1,1)" />
    <rect
       style="opacity:1;fill:#5fd3bc;fill-opacity:1;stroke:#000000;stroke-width:0.08600499;stroke-linecap:round;stroke-linejoin:miter;stroke-miterlimit:4;stroke-dasharray:none;stroke-dashoffset:0;stroke-opacity:1;paint-order:normal"
       id="rect1139-6-0-4"
       width="1.8204387"
       height="1.8204387"
       x="-112.26177"
       y="175.04333"
       transform="scale(-1,1)" />
    <path
       style="fill:none;stroke:#000000;stroke-width:0.43002495;stroke-linecap:butt;stroke-linejoin:miter;stroke-miterlimit:4;stroke-dasharray:none;stroke-opacity:1;marker-end:"
       d="m 165.79633,172.36573 c -2.27556,0 0,3.41333 -2.27556,4.26666 2.27556,0.85333 0,4.26666 2.27556,4.26666"
       id="path1078"
       inkscape:connector-curvature="0"
       sodipodi:nodetypes="ccc" />
    <text
       xml:space="preserve"
       style="font-style:normal;font-variant:normal;font-weight:bold;font-stretch:normal;font-size:2.42725182px;line-height:1;font-family:sans-serif;-inkscape-font-specification:'sans-serif Bold';letter-spacing:0px;word-spacing:0px;fill:#000000;fill-opacity:1;stroke:none;stroke-width:0.26458332"
       x="164.60904"
       y="175.17796"
       id="text1082"><tspan
         sodipodi:role="line"
         id="tspan1080"
         x="164.60904"
         y="175.17796"
         style="stroke-width:0.26458332"><tspan
           style="font-style:normal;font-variant:normal;font-weight:normal;font-stretch:normal;font-family:sans-serif;-inkscape-font-specification:sans-serif"
           id="tspan1094">  PE size</tspan></tspan><tspan
         sodipodi:role="line"
         x="164.60904"
         y="177.60521"
         style="font-style:normal;font-variant:normal;font-weight:normal;font-stretch:normal;font-family:sans-serif;-inkscape-font-specification:sans-serif;stroke-width:0.26458332"
         id="tspan1090">  Fine-Grain info</tspan><tspan
         sodipodi:role="line"
         x="164.60904"
         y="180.03247"
         style="font-style:normal;font-variant:normal;font-weight:normal;font-stretch:normal;font-family:sans-serif;-inkscape-font-specification:sans-serif;stroke-width:0.26458332"
         id="tspan1117">  Partial bitstream</tspan><tspan
         sodipodi:role="line"
         x="164.60904"
         y="182.45972"
         style="stroke-width:0.26458332"
         id="tspan1088" /><tspan
         sodipodi:role="line"
         x="164.60904"
         y="184.88696"
         style="stroke-width:0.26458332"
         id="tspan1084" /></text>
    <text
       xml:space="preserve"
       style="font-style:normal;font-variant:normal;font-weight:bold;font-stretch:normal;font-size:3.64087749px;line-height:1;font-family:sans-serif;-inkscape-font-specification:'sans-serif Bold';letter-spacing:0px;word-spacing:0px;fill:#000000;fill-opacity:1;stroke:none;stroke-width:0.26458332"
       x="167.32866"
       y="192.80627"
       id="text916-18"><tspan
         sodipodi:role="line"
         id="tspan914-2"
         x="167.32866"
         y="192.80627"
         style="stroke-width:0.26458332">User </tspan><tspan
         sodipodi:role="line"
         x="167.32866"
         y="196.44716"
         style="stroke-width:0.26458332"
         id="tspan11039">RM Library</tspan></text>
    <path
       style="opacity:1;fill:#5fd3bc;fill-opacity:1;stroke:#000000;stroke-width:0.17200997;stroke-linecap:round;stroke-linejoin:round;stroke-miterlimit:4;stroke-dasharray:none;stroke-dashoffset:0;stroke-opacity:1;paint-order:stroke markers fill;marker-end:"
       d="m 140.01407,193.1629 0,1.81332 c -0.10526,0.006 -0.20877,0.009 -0.28533,-0.0138 -0.23044,-0.0675 -0.30533,-0.43181 -0.576,-0.432 -0.3355,3e-5 -0.60799,0.2806 -0.608,0.62667 1e-5,0.34607 0.2725,0.62665 0.608,0.62666 0.18814,5.7e-4 0.30194,-0.24022 0.48267,-0.24711 0.10921,-0.004 0.24572,0.0468 0.37866,0.10667 l 0,2.0711 -2.98131,0 c -0.0598,0.13296 -0.11048,0.2695 -0.10666,0.37865 0.006,0.18076 0.24767,0.29545 0.2471,0.48356 -1e-5,0.33553 -0.28059,0.60711 -0.62666,0.60714 -0.34607,-3e-5 -0.62665,-0.27161 -0.62667,-0.60714 1.9e-4,-0.27065 0.36465,-0.34642 0.43201,-0.57688 0.0224,-0.0765 0.0216,-0.17994 0.0137,-0.28533 l -3.17865,0 0,-1.99644 c -0.13176,-0.0592 -0.26695,-0.10857 -0.37514,-0.10488 -0.18074,0.006 -0.29451,0.24768 -0.48264,0.2471 -0.33551,-10e-6 -0.60799,-0.28059 -0.60802,-0.62666 3e-5,-0.34605 0.27251,-0.62666 0.60802,-0.62666 0.27064,1.9e-4 0.34553,0.36465 0.57597,0.432 0.0757,0.0222 0.17772,0.0214 0.28181,0.0138 l 0,-1.88977 z"
       id="rect6905-9-93-9-8-2-34-2"
       inkscape:connector-curvature="0" />
    <path
       inkscape:connector-curvature="0"
       style="fill:none;stroke:#000000;stroke-width:0.64685345;stroke-linecap:butt;stroke-linejoin:miter;stroke-miterlimit:8;stroke-dasharray:none;stroke-opacity:1;marker-end:"
       d="m 130.97897,190.50946 c -0.43827,-3.09894 1.81978,-5.95168 5.04722,-6.37121 1.30608,-0.17046 2.63538,0.0834 3.77599,0.72439 1.20449,-2.18434 4.02269,-3.01496 6.29528,-1.8543 0.39469,0.20383 0.76038,0.46151 1.07963,0.76351 0.94039,-1.80954 3.22747,-2.54516 5.11109,-1.64172 0.52245,0.24918 0.97519,0.60973 1.32932,1.05439 1.51501,-1.70885 4.191,-1.92142 5.97595,-0.46984 0.75175,0.60969 1.25673,1.44877 1.43089,2.37727 2.48153,0.64888 3.94429,3.11294 3.27095,5.49867 -0.0577,0.20108 -0.13039,0.3973 -0.2149,0.59011 1.99104,2.48636 1.50347,6.05233 -1.08836,7.96259 -0.80688,0.5957 -1.75879,0.97891 -2.76595,1.11872 -0.0195,2.67377 -2.29867,4.82737 -5.08788,4.80498 -0.93168,-0.001 -1.84589,-0.25962 -2.63535,-0.73555 -0.94329,3.00106 -4.23456,4.69589 -7.34881,3.78971 -1.30606,-0.38344 -2.4351,-1.18581 -3.19267,-2.27939 -3.18966,1.84869 -7.33134,0.85303 -9.24691,-2.22073 -0.0265,-0.0387 -0.0493,-0.0759 -0.0726,-0.11494 -2.08682,0.23217 -3.97915,-1.19712 -4.22296,-3.19682 -0.13055,-1.06562 0.23506,-2.13125 1.00134,-2.91434 -1.80821,-1.02365 -2.41479,-3.26673 -1.35543,-5.01194 0.60951,-1.00684 1.6805,-1.67252 2.88205,-1.7928 z"
       id="path6337-8-2" />
    <path
       style="opacity:1;fill:#d38d5f;fill-opacity:1;stroke:#000000;stroke-width:0.17200997;stroke-linecap:round;stroke-linejoin:round;stroke-miterlimit:4;stroke-dasharray:none;stroke-dashoffset:0;stroke-opacity:1;paint-order:stroke markers fill;marker-end:"
       d="m 150.66927,197.10706 0,1.81334 c -0.10527,0.006 -0.2088,0.009 -0.28535,-0.0137 -0.23045,-0.0675 -0.30534,-0.43182 -0.576,-0.43201 -0.33551,4e-5 -0.60797,0.28061 -0.60801,0.62667 4e-5,0.34607 0.2725,0.62665 0.60801,0.62666 0.18813,5.8e-4 0.30193,-0.24023 0.48268,-0.2471 0.10921,-0.004 0.24569,0.0468 0.37867,0.10666 l 0,2.0711 -2.98134,0 c -0.0598,0.13297 -0.11048,0.2695 -0.10667,0.37866 0.006,0.18075 0.24768,0.29545 0.24711,0.48356 -1e-5,0.33552 -0.28061,0.60711 -0.62667,0.60712 -0.34607,-1e-5 -0.62665,-0.2716 -0.62666,-0.60712 1.9e-4,-0.27066 0.36466,-0.34643 0.43199,-0.5769 0.0224,-0.0765 0.0216,-0.17993 0.0138,-0.28532 l -3.17867,0 0,-4.5511 3.17867,0 c 0.006,0.10552 0.009,0.20872 -0.0138,0.28534 -0.0675,0.23043 -0.4318,0.30623 -0.43199,0.57688 1e-5,0.3355 0.28059,0.6071 0.62666,0.60711 0.34606,-1e-5 0.62666,-0.27161 0.62667,-0.60711 5.7e-4,-0.18812 -0.24023,-0.30281 -0.24711,-0.48355 -0.004,-0.10921 0.0468,-0.2457 0.10667,-0.37867 z"
       id="rect6905-9-93-9-8-2-3"
       inkscape:connector-curvature="0" />
    <path
       style="opacity:1;fill:#5f8dd3;fill-opacity:1;stroke:#000000;stroke-width:0.17200997;stroke-linecap:round;stroke-linejoin:round;stroke-miterlimit:4;stroke-dasharray:none;stroke-dashoffset:0;stroke-opacity:1;paint-order:stroke fill markers;marker-end:"
       d="m 148.90958,187.29184 0,1.81332 c -0.10526,0.006 -0.20877,0.009 -0.28533,-0.0138 -0.23044,-0.0675 -0.30535,-0.43181 -0.57601,-0.432 -0.33549,3e-5 -0.60797,0.2806 -0.60799,0.62667 2e-5,0.34607 0.2725,0.62665 0.60799,0.62666 0.18815,5.7e-4 0.30195,-0.24022 0.48268,-0.24711 0.1092,-0.004 0.2457,0.0468 0.37866,0.10667 l 0,2.07109 -2.98133,0 c -0.0598,0.13297 -0.11048,0.26951 -0.10666,0.37866 0.006,0.18076 0.24768,0.29545 0.24711,0.48356 -2e-5,0.33553 -0.2806,0.60711 -0.62665,0.60712 -0.34607,-1e-5 -0.62666,-0.27159 -0.62666,-0.60712 1.9e-4,-0.27065 0.36462,-0.34642 0.43198,-0.57688 0.0224,-0.0765 0.0216,-0.17994 0.0138,-0.28534 l -3.17865,0 0,-4.55108 z"
       id="rect6905-9-93-9-8-2-8"
       inkscape:connector-curvature="0" />
    <path
       style="opacity:1;fill:#ffd42a;fill-opacity:1;stroke:#000000;stroke-width:0.17200997;stroke-linecap:round;stroke-linejoin:round;stroke-miterlimit:4;stroke-dasharray:none;stroke-dashoffset:0;stroke-opacity:1;paint-order:stroke markers fill;marker-end:"
       d="m 159.76078,190.57229 0,1.81332 c -0.10527,0.006 -0.20879,0.009 -0.28533,-0.0137 -0.23046,-0.0675 -0.30535,-0.43182 -0.57602,-0.43201 -0.3355,4e-5 -0.60798,0.2806 -0.608,0.62667 2e-5,0.34607 0.2725,0.62665 0.608,0.62667 0.18814,5.6e-4 0.30194,-0.24023 0.48267,-0.24711 0.10921,-0.004 0.24572,0.0468 0.37868,0.10666 l 0,2.0711 -2.98133,0 c -0.0598,0.13296 -0.11048,0.2695 -0.10666,0.37867 0.006,0.18074 0.24768,0.29543 0.24712,0.48354 -3e-5,0.33553 -0.28061,0.60711 -0.62668,0.60714 -0.34606,-3e-5 -0.62664,-0.27161 -0.62666,-0.60714 1.8e-4,-0.27065 0.36465,-0.34642 0.432,-0.57688 0.0224,-0.0765 0.0216,-0.17994 0.0137,-0.28533 l -3.17865,0 0,-1.99644 c -0.13176,-0.0592 -0.26695,-0.10857 -0.37512,-0.10488 -0.18073,0.006 -0.29453,0.24768 -0.48266,0.24711 -0.33551,-2e-5 -0.60798,-0.2806 -0.60801,-0.62666 3e-5,-0.34606 0.2725,-0.62666 0.60801,-0.62666 0.27066,1.9e-4 0.34555,0.36465 0.57599,0.43199 0.0757,0.0222 0.17773,0.0214 0.28179,0.0138 l 0,-1.88977 3.17865,0 c 0.006,0.10539 0.009,0.20872 -0.0137,0.28533 -0.0675,0.23044 -0.43182,0.30622 -0.432,0.57688 2e-5,0.33551 0.2806,0.60709 0.62666,0.60711 0.34607,-2e-5 0.62665,-0.2716 0.62668,-0.60711 5.6e-4,-0.18813 -0.24024,-0.30282 -0.24712,-0.48355 -0.004,-0.10921 0.0468,-0.2457 0.10666,-0.37866 z"
       id="rect6905-9-93-9-8-2"
       inkscape:connector-curvature="0" />
    <text
       xml:space="preserve"
       style="font-style:normal;font-variant:normal;font-weight:bold;font-stretch:normal;font-size:2.42725182px;line-height:1;font-family:sans-serif;-inkscape-font-specification:'sans-serif Bold';letter-spacing:0px;word-spacing:0px;fill:#000000;fill-opacity:1;stroke:none;stroke-width:0.26458332"
       x="126.47485"
       y="176.91682"
       id="text1098"><tspan
         sodipodi:role="line"
         id="tspan1096"
         x="126.47485"
         y="176.91682"
         style="font-style:normal;font-variant:normal;font-weight:normal;font-stretch:normal;font-family:sans-serif;-inkscape-font-specification:sans-serif;stroke-width:0.26458332">FPGA coordinates</tspan><tspan
         sodipodi:role="line"
         x="126.47485"
         y="179.34407"
         style="font-style:normal;font-variant:normal;font-weight:normal;font-stretch:normal;font-family:sans-serif;-inkscape-font-specification:sans-serif;stroke-width:0.26458332"
         id="tspan1100">PE pointer</tspan></text>
    <path
       style="fill:none;stroke:#000000;stroke-width:0.43002495;stroke-linecap:butt;stroke-linejoin:miter;stroke-miterlimit:4;stroke-dasharray:none;stroke-opacity:1;marker-end:"
       d="m 125.90018,172.93462 c -2.27553,0 0,3.18578 -2.27553,3.98222 2.27553,0.79644 0,3.98221 2.27553,3.98221"
       id="path1078-6"
       inkscape:connector-curvature="0"
       sodipodi:nodetypes="ccc" />
    <path
       sodipodi:nodetypes="cc"
       inkscape:connector-curvature="0"
       id="path3510"
       d="m 111.22673,180.73688 c 3.47829,-4.39716 5.35444,-3.96165 10.54221,-3.91345"
       style="fill:none;stroke:#000000;stroke-width:0.25801498;stroke-linecap:butt;stroke-linejoin:miter;stroke-miterlimit:4;stroke-dasharray:none;stroke-opacity:1;marker-end:" />
    <path
       style="fill:none;stroke:#000000;stroke-width:0.25801498;stroke-linecap:butt;stroke-linejoin:miter;stroke-miterlimit:4;stroke-dasharray:none;stroke-opacity:1;marker-end:"
       d="m 145.38303,189.63864 c -0.0155,-15.18715 14.24984,-12.66938 17.1988,-13.00336"
       id="path1264"
       inkscape:connector-curvature="0"
       sodipodi:nodetypes="cc" />
    <path
       style="fill:none;stroke:#000000;stroke-width:0.65874767;stroke-linecap:butt;stroke-linejoin:miter;stroke-miterlimit:4;stroke-dasharray:none;stroke-opacity:1;marker-end:"
       d="m 113.38808,212.68181 5.00619,0 0,17.74928"
       id="path12568"
       inkscape:connector-curvature="0" />
    <text
       xml:space="preserve"
       style="font-style:normal;font-variant:normal;font-weight:bold;font-stretch:normal;font-size:3.64087749px;line-height:1;font-family:sans-serif;-inkscape-font-specification:'sans-serif Bold';letter-spacing:0px;word-spacing:0px;fill:#000000;fill-opacity:1;stroke:none;stroke-width:0.26458332"
       x="119.58374"
       y="216.32033"
       id="text12830"><tspan
         sodipodi:role="line"
         id="tspan12828"
         x="119.58374"
         y="216.32033"
         style="stroke-width:0.26458332">AXI</tspan><tspan
         sodipodi:role="line"
         x="119.58374"
         y="219.96121"
         style="stroke-width:0.26458332"
         id="tspan12832">LITE</tspan></text>
    <path
       style="fill:none;stroke:#1662c8;stroke-width:1.29007471;stroke-linecap:butt;stroke-linejoin:miter;stroke-miterlimit:4;stroke-dasharray:none;stroke-opacity:1;marker-end:"
       d="m 112.82201,242.2275 0,25.10452 7.32555,0"
       id="path12990"
       inkscape:connector-curvature="0" />
    <path
       style="fill:none;stroke:#489613;stroke-width:1.29007471;stroke-linecap:butt;stroke-linejoin:miter;stroke-miterlimit:4;stroke-dasharray:none;stroke-opacity:1;marker-end:"
       d="m 93.363243,201.30407 0,72.81755 27.306587,0"
       id="path14746"
       inkscape:connector-curvature="0" />
    <text
       xml:space="preserve"
       style="font-style:normal;font-variant:normal;font-weight:bold;font-stretch:normal;font-size:3.64087749px;line-height:1;font-family:sans-serif;-inkscape-font-specification:'sans-serif Bold';letter-spacing:0px;word-spacing:0px;fill:#1662c8;fill-opacity:1;stroke:none;stroke-width:0.26458332"
       x="-265.26685"
       y="111.3801"
       id="text15892"
       transform="matrix(0,-1,1,0,0,0)"><tspan
         sodipodi:role="line"
         id="tspan15890"
         x="-265.26685"
         y="111.3801"
         style="fill:#1662c8;fill-opacity:1;stroke-width:0.26458332">ICAP</tspan></text>
    <text
       xml:space="preserve"
       style="font-style:normal;font-variant:normal;font-weight:bold;font-stretch:normal;font-size:3.64087749px;line-height:1;font-family:sans-serif;-inkscape-font-specification:'sans-serif Bold';letter-spacing:0px;word-spacing:0px;fill:#489613;fill-opacity:1;stroke:none;stroke-width:0.26458332"
       x="-265.38596"
       y="91.901947"
       id="text15892-7"
       transform="matrix(0,-1,1,0,0,0)"><tspan
         sodipodi:role="line"
         id="tspan15890-5"
         x="-265.38596"
         y="91.901947"
         style="fill:#489613;fill-opacity:1;stroke-width:0.26458332">PCAP</tspan></text>
  </g>
</svg>
